<mxfile host="Electron" agent="Mozilla/5.0 (Windows NT 10.0; Win64; x64) AppleWebKit/537.36 (KHTML, like Gecko) draw.io/27.0.9 Chrome/134.0.6998.205 Electron/35.4.0 Safari/537.36" version="27.0.9">
  <diagram name="Page-1" id="qgUJrAbdrsQ8CSEoqPn5">
    <mxGraphModel dx="3166" dy="1391" grid="1" gridSize="10" guides="1" tooltips="1" connect="1" arrows="1" fold="1" page="1" pageScale="1" pageWidth="850" pageHeight="1100" math="0" shadow="1">
      <root>
        <mxCell id="0" />
        <mxCell id="1" parent="0" />
        <mxCell id="IGsv6p3J93VmrZlw7XDL-5" style="edgeStyle=orthogonalEdgeStyle;rounded=0;orthogonalLoop=1;jettySize=auto;html=1;exitX=1;exitY=0.5;exitDx=0;exitDy=0;flowAnimation=1;fillColor=#6a00ff;strokeColor=#3700CC;strokeWidth=3;entryX=0;entryY=0.75;entryDx=0;entryDy=0;" parent="1" source="d_W7V7fpkopbaQvocdKn-6" target="PcL3c5xfH3Mke5svch04-14" edge="1">
          <mxGeometry relative="1" as="geometry">
            <mxPoint x="400" y="482.5" as="targetPoint" />
          </mxGeometry>
        </mxCell>
        <mxCell id="d_W7V7fpkopbaQvocdKn-6" value="&lt;ol&gt;&lt;li&gt;get data from link&lt;/li&gt;&lt;li&gt;write to delta lake&lt;/li&gt;&lt;/ol&gt;" style="html=1;aspect=fixed;labelPosition=center;verticalLabelPosition=middle;align=left;verticalAlign=top;horizontal=1;fontStyle=3;textShadow=1;labelBorderColor=none;labelBackgroundColor=none;rounded=1;whiteSpace=wrap;fontColor=#B5739D;" parent="1" vertex="1">
          <mxGeometry x="50" y="390" width="220" height="220" as="geometry" />
        </mxCell>
        <mxCell id="IGsv6p3J93VmrZlw7XDL-6" style="edgeStyle=orthogonalEdgeStyle;rounded=0;orthogonalLoop=1;jettySize=auto;html=1;exitX=1;exitY=0.5;exitDx=0;exitDy=0;flowAnimation=1;fillColor=#d80073;strokeColor=#A50040;strokeWidth=3;" parent="1" source="d_W7V7fpkopbaQvocdKn-7" edge="1">
          <mxGeometry relative="1" as="geometry">
            <mxPoint x="1160" y="490" as="targetPoint" />
          </mxGeometry>
        </mxCell>
        <mxCell id="d_W7V7fpkopbaQvocdKn-7" value="&lt;ol&gt;&lt;li&gt;&lt;sub&gt;get data from bronze&lt;/sub&gt;&lt;/li&gt;&lt;li&gt;&lt;sub&gt;delete dublicate,null value,&lt;/sub&gt;&lt;/li&gt;&lt;li&gt;&lt;sub&gt;check data type&lt;/sub&gt;&lt;/li&gt;&lt;/ol&gt;" style="whiteSpace=wrap;html=1;aspect=fixed;textShadow=1;rounded=1;verticalAlign=top;align=left;fontColor=#7EA6E0;" parent="1" vertex="1">
          <mxGeometry x="790" y="380" width="220" height="220" as="geometry" />
        </mxCell>
        <mxCell id="d_W7V7fpkopbaQvocdKn-8" value="&lt;font style=&quot;color: rgb(179, 179, 179);&quot;&gt;Bronze lyer&lt;/font&gt;" style="text;html=1;align=center;verticalAlign=middle;resizable=0;points=[];autosize=1;fontColor=#E2FF51;" parent="1" vertex="1">
          <mxGeometry x="120" y="360" width="80" height="30" as="geometry" />
        </mxCell>
        <mxCell id="IGsv6p3J93VmrZlw7XDL-2" value="&lt;font style=&quot;&quot;&gt;Silver&lt;/font&gt;&lt;span style=&quot;background-color: transparent;&quot;&gt;&amp;nbsp;lyer&lt;/span&gt;" style="text;html=1;align=center;verticalAlign=middle;resizable=0;points=[];autosize=1;fontColor=#99CCFF;" parent="1" vertex="1">
          <mxGeometry x="400" y="360" width="80" height="30" as="geometry" />
        </mxCell>
        <mxCell id="IGsv6p3J93VmrZlw7XDL-3" value="&lt;ol&gt;&lt;li&gt;use star dimentioal model for BI&lt;/li&gt;&lt;li&gt;aggrigate station&lt;/li&gt;&lt;/ol&gt;" style="whiteSpace=wrap;html=1;aspect=fixed;rounded=1;align=left;verticalAlign=top;fontColor=#FFFFCC;" parent="1" vertex="1">
          <mxGeometry x="1520" y="380" width="220" height="220" as="geometry" />
        </mxCell>
        <mxCell id="IGsv6p3J93VmrZlw7XDL-4" value="&lt;span style=&quot;background-color: transparent;&quot;&gt;Gold lyer&lt;/span&gt;" style="text;html=1;align=center;verticalAlign=middle;resizable=0;points=[];autosize=1;fontColor=#E2FF51;" parent="1" vertex="1">
          <mxGeometry x="685" y="360" width="70" height="30" as="geometry" />
        </mxCell>
        <mxCell id="PcL3c5xfH3Mke5svch04-5" value="" style="edgeStyle=orthogonalEdgeStyle;rounded=0;orthogonalLoop=1;jettySize=auto;html=1;entryX=0;entryY=0.5;entryDx=0;entryDy=0;" edge="1" parent="1" source="PcL3c5xfH3Mke5svch04-1" target="PcL3c5xfH3Mke5svch04-2">
          <mxGeometry relative="1" as="geometry" />
        </mxCell>
        <mxCell id="PcL3c5xfH3Mke5svch04-1" value="Amazon Glacier" style="sketch=0;outlineConnect=0;fontColor=#232F3E;gradientColor=none;strokeColor=#ffffff;fillColor=#232F3E;dashed=0;verticalLabelPosition=middle;verticalAlign=bottom;align=center;html=1;whiteSpace=wrap;fontSize=10;fontStyle=1;spacing=3;shape=mxgraph.aws4.productIcon;prIcon=mxgraph.aws4.glacier;" vertex="1" parent="1">
          <mxGeometry x="70" y="110" width="80" height="110" as="geometry" />
        </mxCell>
        <mxCell id="PcL3c5xfH3Mke5svch04-7" style="edgeStyle=orthogonalEdgeStyle;rounded=0;orthogonalLoop=1;jettySize=auto;html=1;exitX=1;exitY=0.5;exitDx=0;exitDy=0;entryX=0;entryY=0.5;entryDx=0;entryDy=0;" edge="1" parent="1" source="PcL3c5xfH3Mke5svch04-2" target="PcL3c5xfH3Mke5svch04-6">
          <mxGeometry relative="1" as="geometry" />
        </mxCell>
        <mxCell id="PcL3c5xfH3Mke5svch04-2" value="" style="shape=image;verticalLabelPosition=bottom;verticalAlign=top;imageAspect=0;aspect=fixed;image=data:image/jpeg,/9j/4AAQSkZJRgABAQAAAQABAAD/2wCEAAkGBxIRBhASEBIVFhIWFhgYGBgVFxUYExgYFxgWFhgXFhcYHSggGBolHhMYIjEhJSkrLi4uFx8/ODMtNygtLisBCgoKDg0OGhAQGi0lHyUrLS0vLS0tLS0tLzctLS8tLS0wLS0tLS0tNy0tLS0tLSstLS0rLi0tLS0tLS0tLS0tLf/AABEIAL4BCgMBEQACEQEDEQH/xAAbAAEAAgMBAQAAAAAAAAAAAAAABQYDBAcCAf/EAE0QAAEDAgQCBgUHBwcNAQAAAAEAAgMEEQUGEiExQQcTIlFhgTJCcZGhFCM3YrGywSRScnOz0fAXMzQ2Y4LSJVNUVZKToqPC4eLj8RX/xAAbAQEAAgMBAQAAAAAAAAAAAAAABAYBAwUCB//EADMRAQACAQIFAQQJBQEBAAAAAAABAgMEEQUSITFBURMicbEGIzJhgZGhweEUYtHw8VJC/9oADAMBAAIRAxEAPwDuKAgICAgICAgICAgICAgICAgICAgICAgICAgICAgICAgICAgICAgICAgICAgICAgICAgICAgICAgICAgICAgICAgICAgICAgICAgICAgICAgICAgICAgICAgICAgICAgICAgICAgICAgICAgICAgICAgICAgICAgICAgICAgICAgICAgICAgICAgICAgICAgICAgICAgICAgICAgICAgICAgICAgICAgICAgp2M54NLiL4pKV+x2OsWc3k4bcCoeTV+ztyzV2dNwj+oxxeuSPy7fc1W9JcXOnk8nNK8f19f8AzLdPAMni8fq2IukelJ7UczfJh+xy9RrqeYlrtwHUR2tWfz/w36fPNC8260tP12PHxtZbK6vFPn9Ee/CNXX/53+EwmaPE4Jh81LG/9FwJ93Fbq3rbtKDkwZcf26zHxhtr21CAgICAgIIxuNRnGBTt7TrEkjg0je3iVt9jaKc8oMa/HbU/09es7dfSPuSa1JwgICAgICAgICAgICAgICAgICAgIIrMOBRVlFok2cN2PHpNP4jvC1ZcNcldpS9HrL6a/NXt5j1cdxjCpaWuMUwsRwI9Fw5Oae5cXJjtjty2XTT6jHqKRen/ABorz1SBB9abOuNj3jijG0SnsIzhV05AEnWMHqydrbwd6Q96kY9Tkp53j73P1HC9Pmj7O0+sf47Ok5azRDWss3sSgXMbjv7Wn1gulhz1yfFWNbw7LpZ3nrX1/wA+idW9AEBAQVXNeZOqBhhPznrOHqeA+t9im6bTc3vW7K/xbivsd8OKfe8z6fz8kJkcXx8H6jj9n71I1fTF+Lk8B66vf7pdFXKXYQEBAQEBAQEBAQEBAQEBAQEBAQEBBGY/gkVZQmOUb8WuHpMPePxHNas2GuWu0pWk1eTTX56fjHq45jWES0lcYpRvxa4ei4d7T+HJcfJjtjttZdNNqseopz0n8PMNBeEgQEGSnndHO17HFr2m4I4gpEzE7w83pW9ZraN4l2HKmY21VI0Ps2W245OtxLf3Lr6fURkjae6m8Q4fbT23r1r8lgUlzRBV81Zj6pphhPzp9Jw9T/y+xTNNp+b3rdnA4txWMMTixT73mfT+fkoRNzcrqQp8zM9ZWTITL4y490Z+Jaoetn6v8Xc+j9d9TM/2z84dBXLXN8JsLngg8xSNcwFpBB5ggj3hB7QEBAQeIpmuvpcHWJBsQbEcQbcD4IPaAgICAgICAgICAgICAgII7HcGiq6Exyjxa4ek094/dzWvLirkrtKTpdVk01+en4x6uOY5g0tJXGOUeLXD0XjvH4jkuLlxWx22suml1WPU056fjHoj14SXxAQWDApC2maQSCHEgjiF6idp3hEz1i0zE9pdIy7jwnZoksJR7nDvHj4Lq6fURkjae6ra7QTgnmr9n5NbNWY+paYoTeU8T+YP8S62m03P71u3zVDi3FYwR7LFPv8An7v5UBxJcSdye/iumpszMzvIssLd0eR/lM7u5rR7yT+Cga6ekQsv0cr72S33RC7rnLWrefKtzcGEEX87UvbAzvs/0z7A0H3oNTJcXyTFKvDyTpYWzQ34mOQAOHk4H3lBqUWO4nUYfNPE2mDInyDS4SapBGTe1nWbtt4lBIVGYZpMGpZ6fqImSt1PlqHDRHb1Q3UC8k3Hkg06LOzhg1dJJ1Ur6ZzQHQk9VL1mzLXJI34oN6krMTZWU/yiOGSKUgO6gPD4bi4Li4kOaOZQQOW3V+nEfkfUBjauZx60PLnu27LdJAaLAbn85BJz50LsDopIhGyWpJbeZ1oY9F+sc43FwCNhccQg2suZifJjMlLM+CVwjEjJKc9hzb6S1wudLgbc+BQWlAQEBAQEBAQEBAQEBAQUPPOMRzD5OxrX6XXc8i9iOTPxPkutpOGVyRz5o6eI/dwddxzJgtOPTW2nzMfJSp6NpHZ2PwTW8Dw5a74uk/o3cJ+l2q094rqJ56frCNe0h1jxVNzYbYrzS3eH1bS6nFqcUZcU7xLytSSsOGMtRN8d/esol53s3GvIcCCQRuCOI8QvePebREd0fUWrXHab9tp3abnXeSTck3ueJV7xxMViJfAdRaLZbWr23l8XppEF9yBBbC3vPrP29jQB9pK5ettvfZcvo9j5dPNvWfktChu8rON5Z+WZgjfUWNLHEQ1gc8PMjiLuNrWFgOaDA3JzafGqWehAZpcWyh75DqjcLHTe+4O9tgggsrxYg7BKhlL1BikmnbqkLw+MlxDiAAQ4cx4oJOoyjLE+idA2GcU8JiMdRcM1E6jKywNnXPdwQfKfJ876PEm1L4muqTG5hi1aWOjuQLEDYGw8RdBIUlLiclZTiofDFFEbv6lz3OmsLAEOaA1p5oNvLGDyU0NWJC09bUSyt0knsvDbXuBY7IIGPJkzcvUTLwuqKZ73aX3dA9r3OJY4lt+BG9uI80Ezl3C52V0ks8dNEC0NZHTsFxvcudJpBN+7ggsSAgICAgICAgICAgICCmZvzOG3ggcAeD3g8O9rT3955LsaDQc31mSPhH7q9xTicxvhwz18z+0fupIkbycPeF3NlZ5Z9HsIxs1a+n1R3HEfELhcZ4fGfH7Ske9H6rf9FON20ef2GSfct+ko2GPVKGjmVSH12bREbrO0WbbkF6iszO0IV8laRNrTtDFNJtYKx8N4dOP6zJ39HzH6TfSWNRvptPPu+Z9WJdtRhAQdXwOj6nCYo+YaL/pHd3xJXDy357zL6LocHsNPTH5iOvx7z+reWtLEHlzwDuQPaUHmGBrGWY1rRcmzQALncmw5lBkQaceLU7qzqmzxGW5GgPYX3HEab3uEG4gICDTxPFIaan11EjY28AXHie4DiT7EEZhucqKormwwzapHX0jRIL2BJ3LQOAKDZocyUs2KPpopdUzNWpulw9E2dYkWNj3FBLICAgICAgICAgIKLn/NhhvTU5+cI7bh6gPqj6xHPlf3dnhmg9p9bk7eI9XH4lruT6qnfzPo5g5xJ3Vk2hXoh8QZI5XN4EhJiJYmInu3IcSI2eL+zitV8cNc4vMGFVbHYq8BrtgSL+V79yomo4d7TU2jFPTd9HwfSaNLw+k543mOnTymHyErqaXh+PB17z6qNxb6RariE8szy09I/d4U9XxAQT+T8JM2Ih7h83GQT3F3Ifj/APVE1WXlrtHeXZ4Lopz5ue32a/PxDoy5S7iD451mkngEHA8flkr8XralgJjj39kYIY232+9YHWej7FvlOWIi43fH82/vuzYE+0WPmsiyIKbQZDbFmr5b15Pzj36NAG7w7bVq5au5BckBAQcizkw1nSTHTPcRGDHGLcgWh7iPE34+AQdBw3KVFT1LJIYA2Rt7Ou4kXBB4nuJQUPJH0m1ftqP2gQdYQCUBAQEBAQEBBoY7iIpsIlmPqN2He47NHvIW7T4py5K0jy1Z8sYsc3nw4RPM587nvN3OJJJ5k7lXalIrEVr2hTb2m1ptPdjXp5EGSGIufYBRdVq8empz3l5taK9ZSlPRtYLnc95/BU3W8YzaieWvSqJfNNp2h8oKoNri48HbH2clo0Oo9nkjeekveWLWx8u/ZOvpmnw9isrnxLC6kPIhGeZ4+TO7vijPNCRwXAX1FRbgwek7uHcPFac2aMcbz3T+H6G+ryctfsx3n0/l0eipGQ0zY4xZo/i57yuPe83neV9wYKYaRjpG0Qzry2iCr9I+LfJsryWNny/NN7+1fUfJod8EEb0aYC0ZSkMrf6VquP7OxY0feP8AeQQXRrUuo811FDKfSuB4vjuQR+k258gg6ug5bg1bKeliVhleWdZMNJc7RYNNhpvbawQTvSzUPZluMxvc0mZoJa4tNtLza45bBBVcFpMUxLDYwycxQRjQHF72l5HEkt7Tz7dvisCfjyTW/wD4BgdXESdd1moOlI06NOm9weO/csii1GBTNzkKQzkzFzR1t3XuWBwN76tgbcVgW3+Tqu/1gffN/iWRGdG8Bjz7LG52pzGzNLt+0WuaCd997IL1n3MvyDCQWWM0hLWX4Cwu55HMC48yEFOwjJlZiFK2pq6t7es7TQbudY8Da4DQeQHJBr4hDX4JWxvbMZadxtYl2g23LXNJOh1uBH/ZBfcZl+W5Jkkp3OaZIusYWkh922fpuOd26T5oIjomxd02CyxyPLnxP4uJLtDxcbnfiHIMXS3jDosOggie5r5H6jpJDtLOVxvu5w9yDe6LsWdUZc0yOLpInlhLiS4tPaaSTx4kf3UEV0t4rI0UtPC9zXvJedDi0n1GDbkS4+5BdcOw8sw+FjnvLmsa0kuNyQ0An4IKn0sV2nD4IQfTcXH2MFh8X/BdvguPfJa/pG35/wDHH4xk2pWnrPycxViV4WR6jYXSADmtOfNXDjm9vDEztG6bghDI7BfPdZrL6nJNrT8EC9ptPV5q32gPjsoj1jjqjV6hITmEV92hjuI4HvHd7V3eH6zm+rv38IefFt70JVddFbmE4a+oqdLdmj0ncgP3+C05ssY67z3T+H6DJrMnLXpEd59P5X2ipGRU4YwWA958T4rj3vN7c0r/AKfT49PjjHjjaIZ14bxAQcf6UcTbPmWOnLrRQ2DjubOfYvNhxs23xQXKmz3hkdOxjJiGtaGgdXJwAsPV8EFCznjVO7NENZRSanDSXdlze0w7ekBe7dvJYHZKCqbNRRys9F7Q4exwusjluCfS9L+sm+65BP8ATB/VqP8AXt+5IgmOj0WybSW/NP33ILEg5LiH0xs/Wx/sgg60g5Pkj6Tav21H7QIPvTM7/KdIOXVv+Lhf7AjLqVK0ClYBwDQB7AAjCqdKzAcoPJ5SRke3Vb7CUHvoucTkyEHk6QeWt370FWyj+Q9JFRTHZkmprf2sfwuPNBnm/L+lYN4xU3Hu+a3P/McB5IPuUfyHpFqqQ7Mlvo7v84z/AIXOHkg1/wCn9LHfHAfK0P8A7D8UHVkHJulKo1ZiazkyNo83EuP4Kz8Gptgm3rKt8XvvmivpCnLrOULIsmT8tS1dQXjsRtv2yNi62zQOfj3LjcZzU9j7LfrKZp9BfUxO3SPVlrqN8NU6ORtnD3EciDzCo1qzWdpcbPgvgvNMkbTCMxA9loSGcLSustz7fdZiduokqfGHtZZwDu48/PvXRxcTyVjaerRbT1md3Sck4zDPh4ZGAyRo7bOZ+uD6wPw9yRnnNO891x4TkwexjHjjaY7x+/3rKsuqICDWxOtbBh8sz/RjaXHyF7IOTZAwFuI4pVT1bS9lySLuF5JDq4tIOwvt4hYF5/k9w3/Rz/vJf8SyIrNGQKRuAzOpYi2ZjdTe3I6+nciznEbi6D30R4t1mBugce1C7b9B93D3HUPcggcE+l6X9ZN91yCf6YP6tR/r2/ckQTPR9/U2k/QP3nILCg5LiH0xs/Wx/sgg60g5Pkj6Tav21H7QIJnpcwV82HRVEYJMOoPA46HW7XkW/FBsZVz/AEr8KjbUyCOZjQ12oHS6wtqa4C29uCCvdIea461kdJR3kBeC4gHtOGzWMB3O5vfwCDoOU8KNJl6CB3pNbd1uGpxLnfFxHkgovSpA6nx+krY/S2HhqiOpt/aHEf3UZb/RFQn5JUVb93yv0gniQ3dx83OP+yjDW6U4HU+L0ddF6TSGnu1MOtt/aC4eSwPfQ9QHqqmqfu57tAJ47dp58yR7lkdIQcUz3LqzZU+Ba33NaFb+G1201P8AfKp8RnfU2/3wgFPQlhyhlh9bV3N2wNPbd3/Vb4/YufrtdXT12j7U9v8AKfotFOe28/Zh2OjpWRUzY42hrGiwAVUve17Ta07zK0UpWlYrWOkNHHsFZVU2l2zx6LuYPj3jwWjJji8Ieu0OPV05bdJjtPo5Pj9BJBUaJBZw9xHIg8woM0ms7Sp1sGTBeceSNp/3siUH1YZLowzUVW+GpbJG4te03BH8bhZidusNmPJbHaLUnaXW8p5mZWU1jZs7R2m9/wBZvh9inY8kXj71s0OurqK9elvMfvCwLYniDXr6OOekdFK0OjcLOab2PPl7EGPCsLhpqbq6eMMZcmwvxPMk78kG4g+EbII3Csv0tLO99PC1jnCziC7cXvbc7boEOX6ZmKmpbC0Tm5L7m93CxNr23QZ8VwqGqphHURh7AQ6xuNxcA7HxKDLRUjIaRkUTQ2Nos1o4AeaDOgjH5fpnYsKowtM4sde97gaQbXte3ggk0EZR4BTRYi+eOFrZn31OF7nUbu2JsLlBJkbIK5XZGoJZi51OA48dBcwHyabINzB8s0lK/VBC1rvzjdz/ACc4kjyQS6DSxXCoaqmEdRGHsBuAb7EcwRvzQZaCijgpGxQsDI28GjgOf2lB4xTDIaml6udgey4NjfiOBuNwg9Ydh8VPSNigYGRi9gPE3PHig2UHCs1PvmWrP9q8e42/BXTRRtp6fCFQ1k757/GW1lPLT62r5thae2//AKW97vsWrW62unr/AHeI/ds0WjtqLf2+ZdkoaNkNK2OJoaxosAP43PiqnkyWyWm1p3mVopStKxWsdIZ14exBF5gwSOroix+zh6LxxafxHeF4vji8bSiavSU1NNrd/E+jkGM4TLS1ZjmbY8j6rh3tKhWrNZ2lU9RpsmC3LeGgvLQICDLS1D4qhskbi17TcEcQUiZid4eqZLUtFqztMOtZSzQysg0us2do7TeTh+c3w8OSm48kW+K2aHX11Fdp6Wjx+8LGtroCAgICAgICAgICAgICAgICAgICAgIOQ0mXZK7NVVa7YmzSa393bPZb3uPwVqvra6bTU825Y2j8FZppLajUX8RvO8/i6th9DHBRtiiaGsaLAD7T3k96rOXLbLab3neZWPHjrjrFaxtENha3sQEBBr11DHNAWTMa9p5EfEdx8QsTWJ6S15MVMleW8bwpmKdHLCSaaUt+q/tN8nDced1Htp48S4+bgtJ647bfdKtVmSq2M/zQeO9jgfgbH4LVOG8eHNycL1NPG/wRE+FzsPbhkb7WOH4LxyzHhFtp8te9Z/KWoeK8tOzJTVDo52vjcWvabgjiCsxbbs9UvalotWdph1nJ+aW1kOh9mztG45OH5zfxHJTcWWL9PK16DX11Fdp6Wj/d1lW10RAQEBAQEBAQEBAQEBAQEBAQEBAQeWRhoOkAXNzYWuTxPtWZmZ7sRER2elhkQEBAQEBAQEHh8TTxAPtAKMTET3YXYfCeMUZ9rG/uWOWPR49lT/zH5PsFDEyTUyJjXcLta0H3gJFYjtDNcdKzvERDYWXsQEBAQEBAQEBAQEBAQEBAQEBAQEBAQEBAQEBAQEBAQEBAQEBAQEBAQEBAQEBAQEBAQEBAQEBAQEBAQEBAQEBAQEBAQEBAQEBAQEBAQEBAQEBAQEBAQEBAQEBAQEBAQEBAQEBAQEBAQEBAQEBAQEBAQEBAQEBAQEBAQEBAQEBAQEBAQEBAQEBAQEBAQEBAQEBAQEBAQEBAQEBAQEBAQEBAQEBAQEBAQEBAQEBAQEBAQEBAQEBAQEBAQEBAQEBAQf/Z;" vertex="1" parent="1">
          <mxGeometry x="266" y="30" width="154" height="110" as="geometry" />
        </mxCell>
        <mxCell id="PcL3c5xfH3Mke5svch04-4" value="" style="shape=waypoint;sketch=0;size=6;pointerEvents=1;points=[];fillColor=#232F3E;resizable=0;rotatable=0;perimeter=centerPerimeter;snapToPoint=1;fontSize=10;verticalAlign=bottom;strokeColor=#ffffff;fontColor=#232F3E;gradientColor=none;dashed=0;fontStyle=1;spacing=3;" vertex="1" parent="1">
          <mxGeometry x="260" y="155" width="20" height="20" as="geometry" />
        </mxCell>
        <mxCell id="PcL3c5xfH3Mke5svch04-9" style="edgeStyle=orthogonalEdgeStyle;rounded=0;orthogonalLoop=1;jettySize=auto;html=1;exitX=1;exitY=0.5;exitDx=0;exitDy=0;entryX=0;entryY=0.5;entryDx=0;entryDy=0;" edge="1" parent="1" source="PcL3c5xfH3Mke5svch04-6" target="PcL3c5xfH3Mke5svch04-15">
          <mxGeometry relative="1" as="geometry">
            <Array as="points">
              <mxPoint x="700" y="155" />
              <mxPoint x="700" y="320" />
              <mxPoint x="-240" y="320" />
              <mxPoint x="-240" y="500" />
            </Array>
          </mxGeometry>
        </mxCell>
        <mxCell id="PcL3c5xfH3Mke5svch04-6" value="save to data/rawcsv" style="whiteSpace=wrap;html=1;aspect=fixed;" vertex="1" parent="1">
          <mxGeometry x="490" y="60" width="190" height="190" as="geometry" />
        </mxCell>
        <mxCell id="PcL3c5xfH3Mke5svch04-8" value="download data from&amp;nbsp;&lt;div&gt;amazone s3 and save&amp;nbsp;&lt;/div&gt;&lt;div&gt;zipdata and then unzip&lt;/div&gt;&lt;div&gt;&lt;br&gt;&lt;/div&gt;&lt;div&gt;and send to rawcsv&lt;/div&gt;" style="whiteSpace=wrap;html=1;aspect=fixed;align=center;verticalAlign=middle;labelPosition=center;verticalLabelPosition=middle;" vertex="1" parent="1">
          <mxGeometry x="270" y="140" width="150" height="150" as="geometry" />
        </mxCell>
        <mxCell id="PcL3c5xfH3Mke5svch04-14" value="" style="shape=image;verticalLabelPosition=bottom;verticalAlign=top;imageAspect=0;aspect=fixed;image=data:image/jpeg,/9j/4AAQSkZJRgABAQAAAQABAAD/2wCEAAkGBxIRBhASEBIVFhIWFhgYGBgVFxUYExgYFxgWFhgXFhcYHSggGBolHhMYIjEhJSkrLi4uFx8/ODMtNygtLisBCgoKDg0OGhAQGi0lHyUrLS0vLS0tLS0tLzctLS8tLS0wLS0tLS0tNy0tLS0tLSstLS0rLi0tLS0tLS0tLS0tLf/AABEIAL4BCgMBEQACEQEDEQH/xAAbAAEAAgMBAQAAAAAAAAAAAAAABQYDBAcCAf/EAE0QAAEDAgQCBgUHBwcNAQAAAAEAAgMEEQUGEiExQQcTIlFhgTJCcZGhFCM3YrGywSRScnOz0fAXMzQ2Y4LSJVNUVZKToqPC4eLj8RX/xAAbAQEAAgMBAQAAAAAAAAAAAAAABAYBAwUCB//EADMRAQACAQIFAQQJBQEBAAAAAAABAgMEEQUSITFBURMicbEGIzJhgZGhweEUYtHw8VJC/9oADAMBAAIRAxEAPwDuKAgICAgICAgICAgICAgICAgICAgICAgICAgICAgICAgICAgICAgICAgICAgICAgICAgICAgICAgICAgICAgICAgICAgICAgICAgICAgICAgICAgICAgICAgICAgICAgICAgICAgICAgICAgICAgICAgICAgICAgICAgICAgICAgICAgICAgICAgICAgICAgICAgICAgICAgICAgICAgICAgICAgICAgICAgp2M54NLiL4pKV+x2OsWc3k4bcCoeTV+ztyzV2dNwj+oxxeuSPy7fc1W9JcXOnk8nNK8f19f8AzLdPAMni8fq2IukelJ7UczfJh+xy9RrqeYlrtwHUR2tWfz/w36fPNC8260tP12PHxtZbK6vFPn9Ee/CNXX/53+EwmaPE4Jh81LG/9FwJ93Fbq3rbtKDkwZcf26zHxhtr21CAgICAgIIxuNRnGBTt7TrEkjg0je3iVt9jaKc8oMa/HbU/09es7dfSPuSa1JwgICAgICAgICAgICAgICAgICAgIIrMOBRVlFok2cN2PHpNP4jvC1ZcNcldpS9HrL6a/NXt5j1cdxjCpaWuMUwsRwI9Fw5Oae5cXJjtjty2XTT6jHqKRen/ABorz1SBB9abOuNj3jijG0SnsIzhV05AEnWMHqydrbwd6Q96kY9Tkp53j73P1HC9Pmj7O0+sf47Ok5azRDWss3sSgXMbjv7Wn1gulhz1yfFWNbw7LpZ3nrX1/wA+idW9AEBAQVXNeZOqBhhPznrOHqeA+t9im6bTc3vW7K/xbivsd8OKfe8z6fz8kJkcXx8H6jj9n71I1fTF+Lk8B66vf7pdFXKXYQEBAQEBAQEBAQEBAQEBAQEBAQEBBGY/gkVZQmOUb8WuHpMPePxHNas2GuWu0pWk1eTTX56fjHq45jWES0lcYpRvxa4ei4d7T+HJcfJjtjttZdNNqseopz0n8PMNBeEgQEGSnndHO17HFr2m4I4gpEzE7w83pW9ZraN4l2HKmY21VI0Ps2W245OtxLf3Lr6fURkjae6m8Q4fbT23r1r8lgUlzRBV81Zj6pphhPzp9Jw9T/y+xTNNp+b3rdnA4txWMMTixT73mfT+fkoRNzcrqQp8zM9ZWTITL4y490Z+Jaoetn6v8Xc+j9d9TM/2z84dBXLXN8JsLngg8xSNcwFpBB5ggj3hB7QEBAQeIpmuvpcHWJBsQbEcQbcD4IPaAgICAgICAgICAgICAgII7HcGiq6Exyjxa4ek094/dzWvLirkrtKTpdVk01+en4x6uOY5g0tJXGOUeLXD0XjvH4jkuLlxWx22suml1WPU056fjHoj14SXxAQWDApC2maQSCHEgjiF6idp3hEz1i0zE9pdIy7jwnZoksJR7nDvHj4Lq6fURkjae6ra7QTgnmr9n5NbNWY+paYoTeU8T+YP8S62m03P71u3zVDi3FYwR7LFPv8An7v5UBxJcSdye/iumpszMzvIssLd0eR/lM7u5rR7yT+Cga6ekQsv0cr72S33RC7rnLWrefKtzcGEEX87UvbAzvs/0z7A0H3oNTJcXyTFKvDyTpYWzQ34mOQAOHk4H3lBqUWO4nUYfNPE2mDInyDS4SapBGTe1nWbtt4lBIVGYZpMGpZ6fqImSt1PlqHDRHb1Q3UC8k3Hkg06LOzhg1dJJ1Ur6ZzQHQk9VL1mzLXJI34oN6krMTZWU/yiOGSKUgO6gPD4bi4Li4kOaOZQQOW3V+nEfkfUBjauZx60PLnu27LdJAaLAbn85BJz50LsDopIhGyWpJbeZ1oY9F+sc43FwCNhccQg2suZifJjMlLM+CVwjEjJKc9hzb6S1wudLgbc+BQWlAQEBAQEBAQEBAQEBAQUPPOMRzD5OxrX6XXc8i9iOTPxPkutpOGVyRz5o6eI/dwddxzJgtOPTW2nzMfJSp6NpHZ2PwTW8Dw5a74uk/o3cJ+l2q094rqJ56frCNe0h1jxVNzYbYrzS3eH1bS6nFqcUZcU7xLytSSsOGMtRN8d/esol53s3GvIcCCQRuCOI8QvePebREd0fUWrXHab9tp3abnXeSTck3ueJV7xxMViJfAdRaLZbWr23l8XppEF9yBBbC3vPrP29jQB9pK5ettvfZcvo9j5dPNvWfktChu8rON5Z+WZgjfUWNLHEQ1gc8PMjiLuNrWFgOaDA3JzafGqWehAZpcWyh75DqjcLHTe+4O9tgggsrxYg7BKhlL1BikmnbqkLw+MlxDiAAQ4cx4oJOoyjLE+idA2GcU8JiMdRcM1E6jKywNnXPdwQfKfJ876PEm1L4muqTG5hi1aWOjuQLEDYGw8RdBIUlLiclZTiofDFFEbv6lz3OmsLAEOaA1p5oNvLGDyU0NWJC09bUSyt0knsvDbXuBY7IIGPJkzcvUTLwuqKZ73aX3dA9r3OJY4lt+BG9uI80Ezl3C52V0ks8dNEC0NZHTsFxvcudJpBN+7ggsSAgICAgICAgICAgICCmZvzOG3ggcAeD3g8O9rT3955LsaDQc31mSPhH7q9xTicxvhwz18z+0fupIkbycPeF3NlZ5Z9HsIxs1a+n1R3HEfELhcZ4fGfH7Ske9H6rf9FON20ef2GSfct+ko2GPVKGjmVSH12bREbrO0WbbkF6iszO0IV8laRNrTtDFNJtYKx8N4dOP6zJ39HzH6TfSWNRvptPPu+Z9WJdtRhAQdXwOj6nCYo+YaL/pHd3xJXDy357zL6LocHsNPTH5iOvx7z+reWtLEHlzwDuQPaUHmGBrGWY1rRcmzQALncmw5lBkQaceLU7qzqmzxGW5GgPYX3HEab3uEG4gICDTxPFIaan11EjY28AXHie4DiT7EEZhucqKormwwzapHX0jRIL2BJ3LQOAKDZocyUs2KPpopdUzNWpulw9E2dYkWNj3FBLICAgICAgICAgIKLn/NhhvTU5+cI7bh6gPqj6xHPlf3dnhmg9p9bk7eI9XH4lruT6qnfzPo5g5xJ3Vk2hXoh8QZI5XN4EhJiJYmInu3IcSI2eL+zitV8cNc4vMGFVbHYq8BrtgSL+V79yomo4d7TU2jFPTd9HwfSaNLw+k543mOnTymHyErqaXh+PB17z6qNxb6RariE8szy09I/d4U9XxAQT+T8JM2Ih7h83GQT3F3Ifj/APVE1WXlrtHeXZ4Lopz5ue32a/PxDoy5S7iD451mkngEHA8flkr8XralgJjj39kYIY232+9YHWej7FvlOWIi43fH82/vuzYE+0WPmsiyIKbQZDbFmr5b15Pzj36NAG7w7bVq5au5BckBAQcizkw1nSTHTPcRGDHGLcgWh7iPE34+AQdBw3KVFT1LJIYA2Rt7Ou4kXBB4nuJQUPJH0m1ftqP2gQdYQCUBAQEBAQEBBoY7iIpsIlmPqN2He47NHvIW7T4py5K0jy1Z8sYsc3nw4RPM587nvN3OJJJ5k7lXalIrEVr2hTb2m1ptPdjXp5EGSGIufYBRdVq8empz3l5taK9ZSlPRtYLnc95/BU3W8YzaieWvSqJfNNp2h8oKoNri48HbH2clo0Oo9nkjeekveWLWx8u/ZOvpmnw9isrnxLC6kPIhGeZ4+TO7vijPNCRwXAX1FRbgwek7uHcPFac2aMcbz3T+H6G+ryctfsx3n0/l0eipGQ0zY4xZo/i57yuPe83neV9wYKYaRjpG0Qzry2iCr9I+LfJsryWNny/NN7+1fUfJod8EEb0aYC0ZSkMrf6VquP7OxY0feP8AeQQXRrUuo811FDKfSuB4vjuQR+k258gg6ug5bg1bKeliVhleWdZMNJc7RYNNhpvbawQTvSzUPZluMxvc0mZoJa4tNtLza45bBBVcFpMUxLDYwycxQRjQHF72l5HEkt7Tz7dvisCfjyTW/wD4BgdXESdd1moOlI06NOm9weO/csii1GBTNzkKQzkzFzR1t3XuWBwN76tgbcVgW3+Tqu/1gffN/iWRGdG8Bjz7LG52pzGzNLt+0WuaCd997IL1n3MvyDCQWWM0hLWX4Cwu55HMC48yEFOwjJlZiFK2pq6t7es7TQbudY8Da4DQeQHJBr4hDX4JWxvbMZadxtYl2g23LXNJOh1uBH/ZBfcZl+W5Jkkp3OaZIusYWkh922fpuOd26T5oIjomxd02CyxyPLnxP4uJLtDxcbnfiHIMXS3jDosOggie5r5H6jpJDtLOVxvu5w9yDe6LsWdUZc0yOLpInlhLiS4tPaaSTx4kf3UEV0t4rI0UtPC9zXvJedDi0n1GDbkS4+5BdcOw8sw+FjnvLmsa0kuNyQ0An4IKn0sV2nD4IQfTcXH2MFh8X/BdvguPfJa/pG35/wDHH4xk2pWnrPycxViV4WR6jYXSADmtOfNXDjm9vDEztG6bghDI7BfPdZrL6nJNrT8EC9ptPV5q32gPjsoj1jjqjV6hITmEV92hjuI4HvHd7V3eH6zm+rv38IefFt70JVddFbmE4a+oqdLdmj0ncgP3+C05ssY67z3T+H6DJrMnLXpEd59P5X2ipGRU4YwWA958T4rj3vN7c0r/AKfT49PjjHjjaIZ14bxAQcf6UcTbPmWOnLrRQ2DjubOfYvNhxs23xQXKmz3hkdOxjJiGtaGgdXJwAsPV8EFCznjVO7NENZRSanDSXdlze0w7ekBe7dvJYHZKCqbNRRys9F7Q4exwusjluCfS9L+sm+65BP8ATB/VqP8AXt+5IgmOj0WybSW/NP33ILEg5LiH0xs/Wx/sgg60g5Pkj6Tav21H7QIPvTM7/KdIOXVv+Lhf7AjLqVK0ClYBwDQB7AAjCqdKzAcoPJ5SRke3Vb7CUHvoucTkyEHk6QeWt370FWyj+Q9JFRTHZkmprf2sfwuPNBnm/L+lYN4xU3Hu+a3P/McB5IPuUfyHpFqqQ7Mlvo7v84z/AIXOHkg1/wCn9LHfHAfK0P8A7D8UHVkHJulKo1ZiazkyNo83EuP4Kz8Gptgm3rKt8XvvmivpCnLrOULIsmT8tS1dQXjsRtv2yNi62zQOfj3LjcZzU9j7LfrKZp9BfUxO3SPVlrqN8NU6ORtnD3EciDzCo1qzWdpcbPgvgvNMkbTCMxA9loSGcLSustz7fdZiduokqfGHtZZwDu48/PvXRxcTyVjaerRbT1md3Sck4zDPh4ZGAyRo7bOZ+uD6wPw9yRnnNO891x4TkwexjHjjaY7x+/3rKsuqICDWxOtbBh8sz/RjaXHyF7IOTZAwFuI4pVT1bS9lySLuF5JDq4tIOwvt4hYF5/k9w3/Rz/vJf8SyIrNGQKRuAzOpYi2ZjdTe3I6+nciznEbi6D30R4t1mBugce1C7b9B93D3HUPcggcE+l6X9ZN91yCf6YP6tR/r2/ckQTPR9/U2k/QP3nILCg5LiH0xs/Wx/sgg60g5Pkj6Tav21H7QIJnpcwV82HRVEYJMOoPA46HW7XkW/FBsZVz/AEr8KjbUyCOZjQ12oHS6wtqa4C29uCCvdIea461kdJR3kBeC4gHtOGzWMB3O5vfwCDoOU8KNJl6CB3pNbd1uGpxLnfFxHkgovSpA6nx+krY/S2HhqiOpt/aHEf3UZb/RFQn5JUVb93yv0gniQ3dx83OP+yjDW6U4HU+L0ddF6TSGnu1MOtt/aC4eSwPfQ9QHqqmqfu57tAJ47dp58yR7lkdIQcUz3LqzZU+Ba33NaFb+G1201P8AfKp8RnfU2/3wgFPQlhyhlh9bV3N2wNPbd3/Vb4/YufrtdXT12j7U9v8AKfotFOe28/Zh2OjpWRUzY42hrGiwAVUve17Ta07zK0UpWlYrWOkNHHsFZVU2l2zx6LuYPj3jwWjJji8Ieu0OPV05bdJjtPo5Pj9BJBUaJBZw9xHIg8woM0ms7Sp1sGTBeceSNp/3siUH1YZLowzUVW+GpbJG4te03BH8bhZidusNmPJbHaLUnaXW8p5mZWU1jZs7R2m9/wBZvh9inY8kXj71s0OurqK9elvMfvCwLYniDXr6OOekdFK0OjcLOab2PPl7EGPCsLhpqbq6eMMZcmwvxPMk78kG4g+EbII3Csv0tLO99PC1jnCziC7cXvbc7boEOX6ZmKmpbC0Tm5L7m93CxNr23QZ8VwqGqphHURh7AQ6xuNxcA7HxKDLRUjIaRkUTQ2Nos1o4AeaDOgjH5fpnYsKowtM4sde97gaQbXte3ggk0EZR4BTRYi+eOFrZn31OF7nUbu2JsLlBJkbIK5XZGoJZi51OA48dBcwHyabINzB8s0lK/VBC1rvzjdz/ACc4kjyQS6DSxXCoaqmEdRGHsBuAb7EcwRvzQZaCijgpGxQsDI28GjgOf2lB4xTDIaml6udgey4NjfiOBuNwg9Ydh8VPSNigYGRi9gPE3PHig2UHCs1PvmWrP9q8e42/BXTRRtp6fCFQ1k757/GW1lPLT62r5thae2//AKW97vsWrW62unr/AHeI/ds0WjtqLf2+ZdkoaNkNK2OJoaxosAP43PiqnkyWyWm1p3mVopStKxWsdIZ14exBF5gwSOroix+zh6LxxafxHeF4vji8bSiavSU1NNrd/E+jkGM4TLS1ZjmbY8j6rh3tKhWrNZ2lU9RpsmC3LeGgvLQICDLS1D4qhskbi17TcEcQUiZid4eqZLUtFqztMOtZSzQysg0us2do7TeTh+c3w8OSm48kW+K2aHX11Fdp6Wjx+8LGtroCAgICAgICAgICAgICAgICAgICAgIOQ0mXZK7NVVa7YmzSa393bPZb3uPwVqvra6bTU825Y2j8FZppLajUX8RvO8/i6th9DHBRtiiaGsaLAD7T3k96rOXLbLab3neZWPHjrjrFaxtENha3sQEBBr11DHNAWTMa9p5EfEdx8QsTWJ6S15MVMleW8bwpmKdHLCSaaUt+q/tN8nDced1Htp48S4+bgtJ647bfdKtVmSq2M/zQeO9jgfgbH4LVOG8eHNycL1NPG/wRE+FzsPbhkb7WOH4LxyzHhFtp8te9Z/KWoeK8tOzJTVDo52vjcWvabgjiCsxbbs9UvalotWdph1nJ+aW1kOh9mztG45OH5zfxHJTcWWL9PK16DX11Fdp6Wj/d1lW10RAQEBAQEBAQEBAQEBAQEBAQEBAQeWRhoOkAXNzYWuTxPtWZmZ7sRER2elhkQEBAQEBAQEHh8TTxAPtAKMTET3YXYfCeMUZ9rG/uWOWPR49lT/zH5PsFDEyTUyJjXcLta0H3gJFYjtDNcdKzvERDYWXsQEBAQEBAQEBAQEBAQEBAQEBAQEBAQEBAQEBAQEBAQEBAQEBAQEBAQEBAQEBAQEBAQEBAQEBAQEBAQEBAQEBAQEBAQEBAQEBAQEBAQEBAQEBAQEBAQEBAQEBAQEBAQEBAQEBAQEBAQEBAQEBAQEBAQEBAQEBAQEBAQEBAQEBAQEBAQEBAQEBAQEBAQEBAQEBAQEBAQEBAQEBAQEBAQEBAQEBAQEBAQEBAQEBAQEBAQEBAQEBAQEBAQEBAQEBAQf/Z;" vertex="1" parent="1">
          <mxGeometry x="500" y="410" width="170" height="121.43" as="geometry" />
        </mxCell>
        <mxCell id="PcL3c5xfH3Mke5svch04-18" style="edgeStyle=orthogonalEdgeStyle;rounded=0;orthogonalLoop=1;jettySize=auto;html=1;exitX=1;exitY=0.5;exitDx=0;exitDy=0;entryX=0;entryY=0.5;entryDx=0;entryDy=0;" edge="1" parent="1" source="PcL3c5xfH3Mke5svch04-15" target="d_W7V7fpkopbaQvocdKn-6">
          <mxGeometry relative="1" as="geometry" />
        </mxCell>
        <mxCell id="PcL3c5xfH3Mke5svch04-15" value="" style="shape=image;verticalLabelPosition=bottom;verticalAlign=top;imageAspect=0;aspect=fixed;image=data:image/png,iVBORw0KGgoAAAANSUhEUgAAATgAAACiCAMAAADiKyHJAAAAxlBMVEX///88Oj7iWhw5NzskISc2NDgtKi8lIigeGyEhHiQzMTUoJSo1MjcwLTLgSgDhUgDgTADiVxTgRgB+fX/s7OzNzc739/eGhYfX19ccGB/m5ubz8/PhVAu9vL1EQkawsLFZWFtmZGeioqNubW+KiYuamZv88Oyop6hNS07DwsP429LmdUzjYSh1dHbS0tKWlZfyva3toov1zcHlbD3pjW5dXF/xuanvrJj21Mr76+bohmXrlnrupY7ne1Xph2bkZjMAAAgSDBYL/0/PAAAWd0lEQVR4nO1d12LbyA4VPSTFIqpXqrdIcpPtRHYcx5vN///UDjswAxbZm7iehxsvxQqiHmB4S6UPiO7t4/n5j6uXvo03h9tmrXFy0qjVb176Tt4WHqonIZo/X/pe3hJ+1k9iVO9e+m7eDr43TwCan9ZaFI0ThPqXl76hN4K7Ghbc6PGl7+iNoH4ioPpprEVwJQnupPHS9/Qm8NiQBFe7fumbegtoSnLjkfX+pe/q9eNUtlRuq2cvfVuvH7c1QnAnn6VXLr6NKMGd1F76vl49fsmxwRfcw0vf2GtHlZTbZ3zIw32a4BpfX/rWXjduQFAdIautf7KaWQCF6ugB+7vP+JCFH4ms6jenKBkuEB+6N9ePJ/XG2c/Tv3CrrwtAUNV7ITfJiQ/ff35t1j3G/aRRaz52/9INvxJ0gY41+X+iMiIjPpzePVYDoUV2fv4X7/oVABRcvpgwVULHh/urf+rVmpj+fTBi4ArGBm/DVxxZxf2/3DyMqjWy2JD2fdd4SGRQu/U23GfEh+/Xv5p1ukLjqH4oxv0MBNXv/pYHVPTH8eH07owLjS7PPqLgqvKDI8H5ju/+9ke9Ljk1SXAv+iB/GbDgGoXbcHwYPT405EhAoPGhWjyg4Eoe/AyJqZHq1DA+FoMHCq5aPPtwT5HpuQr3sfI4UCmAnO2aJIWz0fz+go/x93EOgiooNwtaJ8BH4z2BUcKgeJNG0sUQosXog5F3sOD6BX84ywqjjVq9LgSQj9bBBkF19A3+kBofuNCqj3ensOI48XmVj4WfIKjisTgqPjRG9ebXn34QuEO53gcLDCWBxcQ/ifFhVGueP9yEpNsNUsjq7d+/8xcGUCvR2mB8aNSqtW9XSSmKieL6x+KTSqXuFfTwEikU/ug5tR+3SKpfkJ3WPlSpVfpy+9isA7nJwyI8PnhO7exOaiecw4iKo/E7x/3d16ZQt4/kBPa6eX59Q3QSzqD7a9Q+DJl0+vOcYDtqBElOi+Qbzde9c3z3iG8qua0X7e/doaLiY0yo33yrpxLfzYLdPSERef9rIro3/1TT2wUcxU4jdCS+5R/xpvHl6jGjyeKh8aPYiZCZj9732OaX2zMxhEqoNYvZHJoted/U5c1jntR4WXByXSw0PCKtfc8LcG5O6nlSa/66K5pRPODK/v3O2Xw5yxYbl9rZbfE87BYnIu93eu4+U2wjXoJeHWNseIlh/f0ua/1STZfbqF7/dmTqikdea//8mZt+DfiaIrdGrV57OJp57KLph/fcYqD7LUeEUAz0GhqNdzxFSKz7OCqEYvxAlf27bjGcS5ba+HpECMW4/kAtBrnZUntya+AKB9S/1WJot9vYJXSHXQ5xty7fTzrW7XT6wrmos7bdEMmexEqjWvOfp+kKdnB/KzDsf6u/V2iLbZgc5RaW3cxQ/x2jLd21pdp2ubyLt3T+Vf8N/+R/deLtiln2EP9YKgmNzxCj+sndEwqlWzxSffwJnoKhoSjaHG7pmooPR4OS66iKYq3hfjvbYd5+eiLOjaMdgr/csmIO4+1GcEZ4ne/0FAMPED+OVzs08fB0kz8KPct7drilbyuMKxxTHCinLReStgQbpgMuW9VWbTMx1lbFCpV3pytOcsaywgwOpNkpqwKfpHY3uK913MFPg2soXCIm9F5TnU1KXXfC2CzZOLYVjatcsqEzUJi64Mf1Z8nBW6ZPg78WDlCvsc4U6cqnGVNuR6sdegu1v8H7LjU2nyh2B2xaWdoF/2dvsW2yUWHaUoPW5zDmAF8fwFTsUP0uKs4+3rx2Khfype+yRo4a9cYxaofT6eqfz3/7hlLuLzVnA7Ydgv9casAyp7pidnXFvoQbUDz14Dm28E+FAdcnXCDCdfawVq35WLxeRdNJz1gL0t9t1vvVfjGWHg7joHF7XFmVFtjGvdO07a51JTI7fxt3XjPmxFtmDDm8AGNdYYeZDy3WPQ5LYVuOyVjY/66Zw8bVRz8L5sSnmFN6EofZX89MW3ccy7Ic3VaX4u0C8FCpdkpThzu1GG0ePp1y2VI0Fm9bO4oxLLUsqxdtMWAwjXfjgYYFUBQj3jw0g82q9BZPz6lPPECj+1q0mEBfJyHa13noLljZYgqAZpN24mPL2NwPo8lTljq2fxjTtdjpd1U/E9k4sdfj0k3MNgb3gpbuQ1PAu7jkYdrm+JdwPVejDFZuVA3YyCIuC/e3ju5D700HSS2ArtAWy0Mlmy2XcwbtauNwWdv2bJHst3IUNl8uZ0xRwy1ccPquJIIxa78bc+y4g0zCAQ/T28sOB3kTN1/TiLnqD19i3aV8JQL/wIx6VKwrFmHnOLLUfPUZLKj9vUyEaRpDSSw3SFxIlNoDJdqvHAVSQ0nMNkLXiH+fa05yxZUl7wtx+qNJlBGjWhAaxvpAit4UBJU7hptqmYS2hbBb8v48MmqhYVlJ7pDkYvF5rdACWaJmBy2KqslTcZOPgqoOFfIAggqN++uqUPQ3mkEzeTjnkbpYdoGKuCM+hTPcpqhbaK5yJsVtcu4Z1pgbVpKtGqL3cj3t8vebsLjo2vEQYm9cd3eRvBHPJIO/2maim6WS5yE9C860uNsGdHa1kyABnpoVBZQgmfiCpx+KZtBtR8uSG5ecaC4LJ1Ia7tbiogsXmR7mPLUI/roAqd2cvybHLus2ZZKXie4FYdrTWJNQeojE2TWaQVR0Z16gYodiEsBzwUVJkraebqYhVGwvXZNZoRh2NjOiELqztQra73LA9FA4e11Liq552bsiMxPveLD0MH5PdW0Wb96pmg87NbhHCJ1d7TxwUIuBrwvZDhI+Ecptin2dr6vlyk1RBii2rnlGGpqTO9lOopC3mEywUS956hr+OZ5slUQbxzNDNdgq2cDPEhr5frtNnOb0MPdxkPMXCfcP1Xo47tDf6sFtO2Rgo4C+CVlsAmKWY6c+GMs/0XFo//9FYfcqSMH2g0gViEw7DSjCFPmgy0ovIDeu9HKV9EpxqSSRjsi0uVsmD0OMZiN/NKxjFJKbovzOSQteC3oG8DyqzNiXWp73uD+XBqfxlw5yGU3RwTFeo9pylE1Jg18fLpEiGPIOe7vs/dOs1es/rmB1dXUUo7nHCRxTZ5tOvzNdejkQNFQrhyp5NZhCzwMJiBAbVVG9uParEbSwH5Lh8/MjGM3hAMtnG8mnvbTBdnv+ZtrbHssSQ6avxlwhdS8LCJvacLkDJtGzPzWyh5dRHHidjZmYaW4W9XrQgl5GrJx5Yuk9pvc4IP2IVyV9Lc5ooogK+wQcUzW8uvZWzNTDDPpskRRzfQfoU6/fMZvnrYP7eY0/W5XBaF5Ce1TKgoB6vv+z30we4qMMn0igr8ISya+K5a8ZNoSvA2Wp3AKGBrmbNGFvy0xLSWM39M1IFbos1Ea/Fs7hj08yv9JyAWMnbi176BsWK8Rn+bf1nPjRdTvj6XQ67rjPjEJ9ZEOYVNpG7s9nXzJXmAfhIb1i3UKHQMTuVhEzbe/WF1tb9SYfJsv17ugnd6ctxSzbPmtnl81JrxBpm4Id8to2/OkQB0Lfgsk5Cuz30rsPKKYG+c2RuFwxU7cq4QtgmqUPDseUGO5aMfUKen+WbrQKhSN3vNivej5Wq1XANGyQ85mBvZfJL/6YAf1VaogMdgmXqbKt5mC4tmxLolY0XV0N8w/20JkbVJ9DqZiHPNG110zVHcuqWAGMQE9XKI0DLF4PPKvf4v6e6+QyOBKhsrLXqXtSt96jn9p7pUaRM3W25VRiRjMyqctubyC8sZA1XqI0LrmLNYy2fhj8kv/9kXSNmwkPbtDNJBJ7Axu6IDolj0Frz9VMHjCryhuXpWuHcWACz5k0QKYo2Or+S6nnLDDJ8nGtinj5om4utSkWgQ32mSfYDPJoQDZIc5YtVd47bC6gX+Kxlg6qLK3AJfkr0LMiREZU3YhPz7RiQTGrKRZBz3CZ3YOdezx/jbTsDwSDGMaBNhJc1PTpY7nNklPdPNTSv7qXQZD0y4oAbZu+dwxXyVG3AE7qufpWEdaZPzkluTl18XCCBZdCYdPHLcO3XBHuil6OzlHNYoErkuJY+X2hTgF1C841o0+wMwqeQDHluqVHMtbhIOMYkUoB3T+sZMnNw/3tmWy09cyVvmv57Tl5Se94IB2TBvpcR5xAGYjhameS+4XNBfQ8YXo1gdqtTWhf1L3Cq6yjLmMahsQz6Nk9zOkRj63YBG98jNz4GYSUMKVDEjYXULSr+L3BGQzAjGVkmP7XEEYNjlH9JK9BuCJyCltksSB29GMzRlufPLvRoU7ASw4OyvEJWfk+xbuGzQVMKnlvbYnk5hA9CIj724ez8/Oz6/xWfpd6g3Z6JtGXH5s5tqlttxNb1eUnB83lAK5sahXdVJYrXj3N9bKcUquodCUSkWCv4GekBp75tpDT03PkdgxIn6GmdWaGtvhgljlb9AO/4Y6XclJcFkp2RTyBY7Z2sf24C018k4jtmgq/MqsS1FxBHJBIpT2MsuwpxXg6yChFRDMfW0GnLHOFbqa9GohdM8y5XAiSdfSN4K03Ysy2QVMZVVQKM2dBgb/qBUHVRemV2sUFg/E/M9kHqnQyyKx9j4XMjJ4Uo9yJcLoyjItjVTgB4RTaE/x24AA7EoS1FTWog+6vskOtwkGBMYrjMKGc8oAYHnCFnhgjX6GQoILxStGjVuhuRneCdS6Z/0WFAZMzsim+NLqalNg8H0OS5CAuhHhPxUkrqeYCzZf80kMPZs1S6rshrscSkqMDfyA81j6dd6AU4dkgIp0iDiiV/LFfKDdi3UYIrDHJChKssRk1Cr5SolowNhCENW4FINCu59m4JJMzkSpBqZqVUcK7yLckCoNbHFlVMea7jEgzoUZZRJ6+TSvl0oLds0GmtcxBafY4Z7gAoId42EjEbSRPPYslRjaZzBzBoEqNvkmcRXStoxjaozClrBUrBXqdRmZKJIgo3Io8kJrdklFIQhL6AGL0bUjXsWKn/f/FmnpbDpgE7cOI5uS8wjkM1FGTDmpRXn8DjYDEygVvwZYjcj+N5LOf0zjLw4q6KuDSUVWbN8yNMvyQT9zBC2RrrCCDaAQEZSPE6NsudUZSpAr+V1xQxGpS78BMIne0FqXwoW60gOSJVXACoIzAQDp4HfIxi1R+tVJ0+vxJmBNZUOxeEFls5r5A6OTCfESXN2UAetRIcOOcbKSXnsblj60/BzP5wiyasYftiQINWPjcgZSwEuae4AJ4yWjtDqQpKZ2dZxDyxdYmPRVE8RX5VZiD5a0SKuExtUBwU7EjnA3oUiPPAGlKafStJCSaCuZhsvOn54JY8hCVmvCmiIAmAr78YHckiXzDgWE1elEHJm+DwElQB0vOKbpW5Eloy6E1sCrEdJk5ZynhjCuIqnNJBzMBzTJK2aAnIVZuCqRSu4PTumO67cejL03vB7U0TA+KLBaBpwlGv5HK5jscyJGHlQN6eWX5FLjcMCTyT/+jg8xjkZwOXi0KaLPcsxByhupALT8QAC07FBLSKGI9JR4454lUVyC4jh0qOg49IRkKEpL1cUF1I8e/HHURAcvSUEhIo3T5kLVUIe+wFth/do2LQCMGIQ1GyQIad5CqcWRnBaILzGdCIU1ztJ4YOF9iY/2zOQl2FeFzowq/kncKVOQHUkKCIzy7CEJI0O1VCFKJGDjv4mf5szmJoHKB4FDAyl2vjbqfob6gGiqX5oFyjoQEU0nqDNTA+RhzF05Wy/gI0ALAcxG+j2vjvltOYEfvuRLmT8hz5472wEAQUTHbY0ilyBsI1cT/k5NsaCJ+jAeQvUthwqaSk0siIqUcspDI2HPn8KC/iISEaja5ZSUMnIfl9BCrHHOen5OMmU7bPBac/7UuvIliJuATQA8XXwKNdVAFEwIMBKGQkEblkkrxLU6Fzs9z17t0Jl5TnjQ6ZKpBlS8QNpk8Ztci2Vs8xGjkZHLQS4ZCQhpFrKfEA+eJMxCM9Xk5SX8WDNuRmQUKDkFPpCe0j8yM50bdfhZHYDzzp6UTZF3PO0FyJBQSysHlb8oJA+cJjSAS6nnvLAPu3IwXmcgqt8ONEj86iYSNNEuTAHNT4P3iZDS1f9L1F/MAjxhVeIucHByNR4Av0InGmh+ZUtBuGckl5FeHLS2s8eVRmRRiqD1BuglvUpjUVmmGxK0MvH/As0ZC6uWQSikD5yWcjnu/ZY91p6C7whNFliCBLp6rCd+cvHBfp4cthYkZ2NQWEmulTAWIjcG0EjavKIZDrad4KXrg3ENbuH3jKVMkc7GzgAcw+wy/nYEf1dvEWJo1kb86KM6S43crqq2zFc/Q2eqB94OBIKIxIVdIlB70wHmAjWCslnR0PuROkJN84ZOro1CoBlpxSXXAmHGBHrx/YYieEHsTcbhNYeYcKEZ74wd6v8EA7zJK4+QyDoEcOI8gfFvlSTmJLAPNbHWG3irAlik2HcpBujim+24Vdbu49FVyeLneqiLvzsSmnOQpFc22WtNOv9+Zrrbh5+t8BYOpRSgkN6dbhAcNNPyjaKzlJ4zgUFO/FV3l0KWRFTv+wCwpuGCM1a5U+P8QE0/S1A45/Wk53hcJ9Tgk+QoGbzJM4zrH9AalbGcjvPqsfCoFbtEvtIDLZ/Td0kHUc+I8JgVfwWAgCMfEEKlEZBSwbUt8jEqYxym0EEbAMqOJJjxDZBCHwockMKh0o8D3r3wFA0YdCQlRqUQydECkktQxF4Yin5KTyG2FFCSjhU9QOFJu0u0T8K0Q3GLUSoS1hEM8NfIzBHmyEIz1CRPBrWJyALN4KVNAGUhb+UeucoDwSQEYCKJuNCKV5LNnfcVAPoEix48C6Katz0UwE2130+bO0qCVU1PMvHU1focCphZRAxWRSnKhKPYG5SuL2h6n/u3NdDrdlC79+fdpFjlND2BiwM9miDl/HvRtRszqZK+A8xUMkUqBkIZH9QZJ3mstGKsa2nN7ulDH09Le+15Z/3fmeM40z81pKnynKHPV8pZcajlLfLMXbfoKtpZ7g5hUyusN0r0FoQ2V6GXbG1vbr/lRrX12C2+TLTl7hlQGNYfdRebaZlae5baSemKJAS/tvTHIB4QNDlTxEN0i1OZImSIT11PFHI/r9UVW42W/pPVzBsLGGfdulYWIeIF7nO4hdTW9Zk+KDD/2Z1KZEYDpqpcCwdQi9OFwCQP1rdUL1BtM0XlxCV3EbQWCm3Z6481l3iRdeyYtywpuyjH2oiFIPc7OViUG4/mhh6Izo5fzgfR1P80xZoHbGdgx1FlwwIoXKBGohaG4N5jG8orGGhY3geA2JTbpdvJHEMcT6VsKzFEn4tqqEipvI8q438PfNdQc3dwujqlj2puDYTtWRWOMaZajl9XlNDq+AxAmFutWggui0vytAvyb9v76v8sIalCMu79LvuDWS64TBe79smepenjrFUe3vYWAxG5DosfpHb2eW2bZ1wrTmu93TxizvZzuLw7b7WzeWuf9v0fkwW1DpO427LsQ/b7vkH22nh/VHZaGBZv97njdmm+326xbhwFNaAR3+aX7/T/wZdp3AYoc+0QBbORRtU8UAUGOfaIIIDlWYIr1ExEgOUY0gj+RBpCN/OFp0PcFF/TdcodlPpEAkWNv6xutLwvYdyswg/qJCJAcKzD1/IkIiBz7k+s+3xsgYfOZxh0BYKlPHi37iOgClj1/YfMnYri/nRiZX5b7BIa7XoRYr9cfN6j+B11RrZ+PGhjlAAAAAElFTkSuQmCC;" vertex="1" parent="1">
          <mxGeometry x="-190" y="455.87" width="170" height="88.27" as="geometry" />
        </mxCell>
        <mxCell id="PcL3c5xfH3Mke5svch04-19" value="" style="shape=image;verticalLabelPosition=bottom;verticalAlign=top;imageAspect=0;aspect=fixed;image=data:image/png,iVBORw0KGgoAAAANSUhEUgAAATgAAACiCAMAAADiKyHJAAAAxlBMVEX///88Oj7iWhw5NzskISc2NDgtKi8lIigeGyEhHiQzMTUoJSo1MjcwLTLgSgDhUgDgTADiVxTgRgB+fX/s7OzNzc739/eGhYfX19ccGB/m5ubz8/PhVAu9vL1EQkawsLFZWFtmZGeioqNubW+KiYuamZv88Oyop6hNS07DwsP429LmdUzjYSh1dHbS0tKWlZfyva3toov1zcHlbD3pjW5dXF/xuanvrJj21Mr76+bohmXrlnrupY7ne1Xph2bkZjMAAAgSDBYL/0/PAAAWd0lEQVR4nO1d12LbyA4VPSTFIqpXqrdIcpPtRHYcx5vN///UDjswAxbZm7iehxsvxQqiHmB4S6UPiO7t4/n5j6uXvo03h9tmrXFy0qjVb176Tt4WHqonIZo/X/pe3hJ+1k9iVO9e+m7eDr43TwCan9ZaFI0ThPqXl76hN4K7Ghbc6PGl7+iNoH4ioPpprEVwJQnupPHS9/Qm8NiQBFe7fumbegtoSnLjkfX+pe/q9eNUtlRuq2cvfVuvH7c1QnAnn6VXLr6NKMGd1F76vl49fsmxwRfcw0vf2GtHlZTbZ3zIw32a4BpfX/rWXjduQFAdIautf7KaWQCF6ugB+7vP+JCFH4ms6jenKBkuEB+6N9ePJ/XG2c/Tv3CrrwtAUNV7ITfJiQ/ff35t1j3G/aRRaz52/9INvxJ0gY41+X+iMiIjPpzePVYDoUV2fv4X7/oVABRcvpgwVULHh/urf+rVmpj+fTBi4ArGBm/DVxxZxf2/3DyMqjWy2JD2fdd4SGRQu/U23GfEh+/Xv5p1ukLjqH4oxv0MBNXv/pYHVPTH8eH07owLjS7PPqLgqvKDI8H5ju/+9ke9Ljk1SXAv+iB/GbDgGoXbcHwYPT405EhAoPGhWjyg4Eoe/AyJqZHq1DA+FoMHCq5aPPtwT5HpuQr3sfI4UCmAnO2aJIWz0fz+go/x93EOgiooNwtaJ8BH4z2BUcKgeJNG0sUQosXog5F3sOD6BX84ywqjjVq9LgSQj9bBBkF19A3+kBofuNCqj3ensOI48XmVj4WfIKjisTgqPjRG9ebXn34QuEO53gcLDCWBxcQ/ifFhVGueP9yEpNsNUsjq7d+/8xcGUCvR2mB8aNSqtW9XSSmKieL6x+KTSqXuFfTwEikU/ug5tR+3SKpfkJ3WPlSpVfpy+9isA7nJwyI8PnhO7exOaiecw4iKo/E7x/3d16ZQt4/kBPa6eX59Q3QSzqD7a9Q+DJl0+vOcYDtqBElOi+Qbzde9c3z3iG8qua0X7e/doaLiY0yo33yrpxLfzYLdPSERef9rIro3/1TT2wUcxU4jdCS+5R/xpvHl6jGjyeKh8aPYiZCZj9732OaX2zMxhEqoNYvZHJoted/U5c1jntR4WXByXSw0PCKtfc8LcG5O6nlSa/66K5pRPODK/v3O2Xw5yxYbl9rZbfE87BYnIu93eu4+U2wjXoJeHWNseIlh/f0ua/1STZfbqF7/dmTqikdea//8mZt+DfiaIrdGrV57OJp57KLph/fcYqD7LUeEUAz0GhqNdzxFSKz7OCqEYvxAlf27bjGcS5ba+HpECMW4/kAtBrnZUntya+AKB9S/1WJot9vYJXSHXQ5xty7fTzrW7XT6wrmos7bdEMmexEqjWvOfp+kKdnB/KzDsf6u/V2iLbZgc5RaW3cxQ/x2jLd21pdp2ubyLt3T+Vf8N/+R/deLtiln2EP9YKgmNzxCj+sndEwqlWzxSffwJnoKhoSjaHG7pmooPR4OS66iKYq3hfjvbYd5+eiLOjaMdgr/csmIO4+1GcEZ4ne/0FAMPED+OVzs08fB0kz8KPct7drilbyuMKxxTHCinLReStgQbpgMuW9VWbTMx1lbFCpV3pytOcsaywgwOpNkpqwKfpHY3uK913MFPg2soXCIm9F5TnU1KXXfC2CzZOLYVjatcsqEzUJi64Mf1Z8nBW6ZPg78WDlCvsc4U6cqnGVNuR6sdegu1v8H7LjU2nyh2B2xaWdoF/2dvsW2yUWHaUoPW5zDmAF8fwFTsUP0uKs4+3rx2Khfype+yRo4a9cYxaofT6eqfz3/7hlLuLzVnA7Ydgv9casAyp7pidnXFvoQbUDz14Dm28E+FAdcnXCDCdfawVq35WLxeRdNJz1gL0t9t1vvVfjGWHg7joHF7XFmVFtjGvdO07a51JTI7fxt3XjPmxFtmDDm8AGNdYYeZDy3WPQ5LYVuOyVjY/66Zw8bVRz8L5sSnmFN6EofZX89MW3ccy7Ic3VaX4u0C8FCpdkpThzu1GG0ePp1y2VI0Fm9bO4oxLLUsqxdtMWAwjXfjgYYFUBQj3jw0g82q9BZPz6lPPECj+1q0mEBfJyHa13noLljZYgqAZpN24mPL2NwPo8lTljq2fxjTtdjpd1U/E9k4sdfj0k3MNgb3gpbuQ1PAu7jkYdrm+JdwPVejDFZuVA3YyCIuC/e3ju5D700HSS2ArtAWy0Mlmy2XcwbtauNwWdv2bJHst3IUNl8uZ0xRwy1ccPquJIIxa78bc+y4g0zCAQ/T28sOB3kTN1/TiLnqD19i3aV8JQL/wIx6VKwrFmHnOLLUfPUZLKj9vUyEaRpDSSw3SFxIlNoDJdqvHAVSQ0nMNkLXiH+fa05yxZUl7wtx+qNJlBGjWhAaxvpAit4UBJU7hptqmYS2hbBb8v48MmqhYVlJ7pDkYvF5rdACWaJmBy2KqslTcZOPgqoOFfIAggqN++uqUPQ3mkEzeTjnkbpYdoGKuCM+hTPcpqhbaK5yJsVtcu4Z1pgbVpKtGqL3cj3t8vebsLjo2vEQYm9cd3eRvBHPJIO/2maim6WS5yE9C860uNsGdHa1kyABnpoVBZQgmfiCpx+KZtBtR8uSG5ecaC4LJ1Ia7tbiogsXmR7mPLUI/roAqd2cvybHLus2ZZKXie4FYdrTWJNQeojE2TWaQVR0Z16gYodiEsBzwUVJkraebqYhVGwvXZNZoRh2NjOiELqztQra73LA9FA4e11Liq552bsiMxPveLD0MH5PdW0Wb96pmg87NbhHCJ1d7TxwUIuBrwvZDhI+Ecptin2dr6vlyk1RBii2rnlGGpqTO9lOopC3mEywUS956hr+OZ5slUQbxzNDNdgq2cDPEhr5frtNnOb0MPdxkPMXCfcP1Xo47tDf6sFtO2Rgo4C+CVlsAmKWY6c+GMs/0XFo//9FYfcqSMH2g0gViEw7DSjCFPmgy0ovIDeu9HKV9EpxqSSRjsi0uVsmD0OMZiN/NKxjFJKbovzOSQteC3oG8DyqzNiXWp73uD+XBqfxlw5yGU3RwTFeo9pylE1Jg18fLpEiGPIOe7vs/dOs1es/rmB1dXUUo7nHCRxTZ5tOvzNdejkQNFQrhyp5NZhCzwMJiBAbVVG9uParEbSwH5Lh8/MjGM3hAMtnG8mnvbTBdnv+ZtrbHssSQ6avxlwhdS8LCJvacLkDJtGzPzWyh5dRHHidjZmYaW4W9XrQgl5GrJx5Yuk9pvc4IP2IVyV9Lc5ooogK+wQcUzW8uvZWzNTDDPpskRRzfQfoU6/fMZvnrYP7eY0/W5XBaF5Ce1TKgoB6vv+z30we4qMMn0igr8ISya+K5a8ZNoSvA2Wp3AKGBrmbNGFvy0xLSWM39M1IFbos1Ea/Fs7hj08yv9JyAWMnbi176BsWK8Rn+bf1nPjRdTvj6XQ67rjPjEJ9ZEOYVNpG7s9nXzJXmAfhIb1i3UKHQMTuVhEzbe/WF1tb9SYfJsv17ugnd6ctxSzbPmtnl81JrxBpm4Id8to2/OkQB0Lfgsk5Cuz30rsPKKYG+c2RuFwxU7cq4QtgmqUPDseUGO5aMfUKen+WbrQKhSN3vNivej5Wq1XANGyQ85mBvZfJL/6YAf1VaogMdgmXqbKt5mC4tmxLolY0XV0N8w/20JkbVJ9DqZiHPNG110zVHcuqWAGMQE9XKI0DLF4PPKvf4v6e6+QyOBKhsrLXqXtSt96jn9p7pUaRM3W25VRiRjMyqctubyC8sZA1XqI0LrmLNYy2fhj8kv/9kXSNmwkPbtDNJBJ7Axu6IDolj0Frz9VMHjCryhuXpWuHcWACz5k0QKYo2Or+S6nnLDDJ8nGtinj5om4utSkWgQ32mSfYDPJoQDZIc5YtVd47bC6gX+Kxlg6qLK3AJfkr0LMiREZU3YhPz7RiQTGrKRZBz3CZ3YOdezx/jbTsDwSDGMaBNhJc1PTpY7nNklPdPNTSv7qXQZD0y4oAbZu+dwxXyVG3AE7qufpWEdaZPzkluTl18XCCBZdCYdPHLcO3XBHuil6OzlHNYoErkuJY+X2hTgF1C841o0+wMwqeQDHluqVHMtbhIOMYkUoB3T+sZMnNw/3tmWy09cyVvmv57Tl5Se94IB2TBvpcR5xAGYjhameS+4XNBfQ8YXo1gdqtTWhf1L3Cq6yjLmMahsQz6Nk9zOkRj63YBG98jNz4GYSUMKVDEjYXULSr+L3BGQzAjGVkmP7XEEYNjlH9JK9BuCJyCltksSB29GMzRlufPLvRoU7ASw4OyvEJWfk+xbuGzQVMKnlvbYnk5hA9CIj724ez8/Oz6/xWfpd6g3Z6JtGXH5s5tqlttxNb1eUnB83lAK5sahXdVJYrXj3N9bKcUquodCUSkWCv4GekBp75tpDT03PkdgxIn6GmdWaGtvhgljlb9AO/4Y6XclJcFkp2RTyBY7Z2sf24C018k4jtmgq/MqsS1FxBHJBIpT2MsuwpxXg6yChFRDMfW0GnLHOFbqa9GohdM8y5XAiSdfSN4K03Ysy2QVMZVVQKM2dBgb/qBUHVRemV2sUFg/E/M9kHqnQyyKx9j4XMjJ4Uo9yJcLoyjItjVTgB4RTaE/x24AA7EoS1FTWog+6vskOtwkGBMYrjMKGc8oAYHnCFnhgjX6GQoILxStGjVuhuRneCdS6Z/0WFAZMzsim+NLqalNg8H0OS5CAuhHhPxUkrqeYCzZf80kMPZs1S6rshrscSkqMDfyA81j6dd6AU4dkgIp0iDiiV/LFfKDdi3UYIrDHJChKssRk1Cr5SolowNhCENW4FINCu59m4JJMzkSpBqZqVUcK7yLckCoNbHFlVMea7jEgzoUZZRJ6+TSvl0oLds0GmtcxBafY4Z7gAoId42EjEbSRPPYslRjaZzBzBoEqNvkmcRXStoxjaozClrBUrBXqdRmZKJIgo3Io8kJrdklFIQhL6AGL0bUjXsWKn/f/FmnpbDpgE7cOI5uS8wjkM1FGTDmpRXn8DjYDEygVvwZYjcj+N5LOf0zjLw4q6KuDSUVWbN8yNMvyQT9zBC2RrrCCDaAQEZSPE6NsudUZSpAr+V1xQxGpS78BMIne0FqXwoW60gOSJVXACoIzAQDp4HfIxi1R+tVJ0+vxJmBNZUOxeEFls5r5A6OTCfESXN2UAetRIcOOcbKSXnsblj60/BzP5wiyasYftiQINWPjcgZSwEuae4AJ4yWjtDqQpKZ2dZxDyxdYmPRVE8RX5VZiD5a0SKuExtUBwU7EjnA3oUiPPAGlKafStJCSaCuZhsvOn54JY8hCVmvCmiIAmAr78YHckiXzDgWE1elEHJm+DwElQB0vOKbpW5Eloy6E1sCrEdJk5ZynhjCuIqnNJBzMBzTJK2aAnIVZuCqRSu4PTumO67cejL03vB7U0TA+KLBaBpwlGv5HK5jscyJGHlQN6eWX5FLjcMCTyT/+jg8xjkZwOXi0KaLPcsxByhupALT8QAC07FBLSKGI9JR4454lUVyC4jh0qOg49IRkKEpL1cUF1I8e/HHURAcvSUEhIo3T5kLVUIe+wFth/do2LQCMGIQ1GyQIad5CqcWRnBaILzGdCIU1ztJ4YOF9iY/2zOQl2FeFzowq/kncKVOQHUkKCIzy7CEJI0O1VCFKJGDjv4mf5szmJoHKB4FDAyl2vjbqfob6gGiqX5oFyjoQEU0nqDNTA+RhzF05Wy/gI0ALAcxG+j2vjvltOYEfvuRLmT8hz5472wEAQUTHbY0ilyBsI1cT/k5NsaCJ+jAeQvUthwqaSk0siIqUcspDI2HPn8KC/iISEaja5ZSUMnIfl9BCrHHOen5OMmU7bPBac/7UuvIliJuATQA8XXwKNdVAFEwIMBKGQkEblkkrxLU6Fzs9z17t0Jl5TnjQ6ZKpBlS8QNpk8Ztci2Vs8xGjkZHLQS4ZCQhpFrKfEA+eJMxCM9Xk5SX8WDNuRmQUKDkFPpCe0j8yM50bdfhZHYDzzp6UTZF3PO0FyJBQSysHlb8oJA+cJjSAS6nnvLAPu3IwXmcgqt8ONEj86iYSNNEuTAHNT4P3iZDS1f9L1F/MAjxhVeIucHByNR4Av0InGmh+ZUtBuGckl5FeHLS2s8eVRmRRiqD1BuglvUpjUVmmGxK0MvH/As0ZC6uWQSikD5yWcjnu/ZY91p6C7whNFliCBLp6rCd+cvHBfp4cthYkZ2NQWEmulTAWIjcG0EjavKIZDrad4KXrg3ENbuH3jKVMkc7GzgAcw+wy/nYEf1dvEWJo1kb86KM6S43crqq2zFc/Q2eqB94OBIKIxIVdIlB70wHmAjWCslnR0PuROkJN84ZOro1CoBlpxSXXAmHGBHrx/YYieEHsTcbhNYeYcKEZ74wd6v8EA7zJK4+QyDoEcOI8gfFvlSTmJLAPNbHWG3irAlik2HcpBujim+24Vdbu49FVyeLneqiLvzsSmnOQpFc22WtNOv9+Zrrbh5+t8BYOpRSgkN6dbhAcNNPyjaKzlJ4zgUFO/FV3l0KWRFTv+wCwpuGCM1a5U+P8QE0/S1A45/Wk53hcJ9Tgk+QoGbzJM4zrH9AalbGcjvPqsfCoFbtEvtIDLZ/Td0kHUc+I8JgVfwWAgCMfEEKlEZBSwbUt8jEqYxym0EEbAMqOJJjxDZBCHwockMKh0o8D3r3wFA0YdCQlRqUQydECkktQxF4Yin5KTyG2FFCSjhU9QOFJu0u0T8K0Q3GLUSoS1hEM8NfIzBHmyEIz1CRPBrWJyALN4KVNAGUhb+UeucoDwSQEYCKJuNCKV5LNnfcVAPoEix48C6Katz0UwE2130+bO0qCVU1PMvHU1focCphZRAxWRSnKhKPYG5SuL2h6n/u3NdDrdlC79+fdpFjlND2BiwM9miDl/HvRtRszqZK+A8xUMkUqBkIZH9QZJ3mstGKsa2nN7ulDH09Le+15Z/3fmeM40z81pKnynKHPV8pZcajlLfLMXbfoKtpZ7g5hUyusN0r0FoQ2V6GXbG1vbr/lRrX12C2+TLTl7hlQGNYfdRebaZlae5baSemKJAS/tvTHIB4QNDlTxEN0i1OZImSIT11PFHI/r9UVW42W/pPVzBsLGGfdulYWIeIF7nO4hdTW9Zk+KDD/2Z1KZEYDpqpcCwdQi9OFwCQP1rdUL1BtM0XlxCV3EbQWCm3Z6481l3iRdeyYtywpuyjH2oiFIPc7OViUG4/mhh6Izo5fzgfR1P80xZoHbGdgx1FlwwIoXKBGohaG4N5jG8orGGhY3geA2JTbpdvJHEMcT6VsKzFEn4tqqEipvI8q438PfNdQc3dwujqlj2puDYTtWRWOMaZajl9XlNDq+AxAmFutWggui0vytAvyb9v76v8sIalCMu79LvuDWS64TBe79smepenjrFUe3vYWAxG5DosfpHb2eW2bZ1wrTmu93TxizvZzuLw7b7WzeWuf9v0fkwW1DpO427LsQ/b7vkH22nh/VHZaGBZv97njdmm+326xbhwFNaAR3+aX7/T/wZdp3AYoc+0QBbORRtU8UAUGOfaIIIDlWYIr1ExEgOUY0gj+RBpCN/OFp0PcFF/TdcodlPpEAkWNv6xutLwvYdyswg/qJCJAcKzD1/IkIiBz7k+s+3xsgYfOZxh0BYKlPHi37iOgClj1/YfMnYri/nRiZX5b7BIa7XoRYr9cfN6j+B11RrZ+PGhjlAAAAAElFTkSuQmCC;" vertex="1" parent="1">
          <mxGeometry x="500" y="530" width="170" height="88.27" as="geometry" />
        </mxCell>
        <mxCell id="PcL3c5xfH3Mke5svch04-21" style="edgeStyle=orthogonalEdgeStyle;rounded=0;orthogonalLoop=1;jettySize=auto;html=1;exitX=1;exitY=0.75;exitDx=0;exitDy=0;entryX=0.02;entryY=0.549;entryDx=0;entryDy=0;entryPerimeter=0;" edge="1" parent="1" source="PcL3c5xfH3Mke5svch04-14" target="d_W7V7fpkopbaQvocdKn-7">
          <mxGeometry relative="1" as="geometry" />
        </mxCell>
        <mxCell id="PcL3c5xfH3Mke5svch04-22" value="" style="shape=image;verticalLabelPosition=bottom;verticalAlign=top;imageAspect=0;aspect=fixed;image=data:image/jpeg,/9j/4AAQSkZJRgABAQAAAQABAAD/2wCEAAkGBxIRBhASEBIVFhIWFhgYGBgVFxUYExgYFxgWFhgXFhcYHSggGBolHhMYIjEhJSkrLi4uFx8/ODMtNygtLisBCgoKDg0OGhAQGi0lHyUrLS0vLS0tLS0tLzctLS8tLS0wLS0tLS0tNy0tLS0tLSstLS0rLi0tLS0tLS0tLS0tLf/AABEIAL4BCgMBEQACEQEDEQH/xAAbAAEAAgMBAQAAAAAAAAAAAAAABQYDBAcCAf/EAE0QAAEDAgQCBgUHBwcNAQAAAAEAAgMEEQUGEiExQQcTIlFhgTJCcZGhFCM3YrGywSRScnOz0fAXMzQ2Y4LSJVNUVZKToqPC4eLj8RX/xAAbAQEAAgMBAQAAAAAAAAAAAAAABAYBAwUCB//EADMRAQACAQIFAQQJBQEBAAAAAAABAgMEEQUSITFBURMicbEGIzJhgZGhweEUYtHw8VJC/9oADAMBAAIRAxEAPwDuKAgICAgICAgICAgICAgICAgICAgICAgICAgICAgICAgICAgICAgICAgICAgICAgICAgICAgICAgICAgICAgICAgICAgICAgICAgICAgICAgICAgICAgICAgICAgICAgICAgICAgICAgICAgICAgICAgICAgICAgICAgICAgICAgICAgICAgICAgICAgICAgICAgICAgICAgICAgICAgICAgICAgICAgICAgp2M54NLiL4pKV+x2OsWc3k4bcCoeTV+ztyzV2dNwj+oxxeuSPy7fc1W9JcXOnk8nNK8f19f8AzLdPAMni8fq2IukelJ7UczfJh+xy9RrqeYlrtwHUR2tWfz/w36fPNC8260tP12PHxtZbK6vFPn9Ee/CNXX/53+EwmaPE4Jh81LG/9FwJ93Fbq3rbtKDkwZcf26zHxhtr21CAgICAgIIxuNRnGBTt7TrEkjg0je3iVt9jaKc8oMa/HbU/09es7dfSPuSa1JwgICAgICAgICAgICAgICAgICAgIIrMOBRVlFok2cN2PHpNP4jvC1ZcNcldpS9HrL6a/NXt5j1cdxjCpaWuMUwsRwI9Fw5Oae5cXJjtjty2XTT6jHqKRen/ABorz1SBB9abOuNj3jijG0SnsIzhV05AEnWMHqydrbwd6Q96kY9Tkp53j73P1HC9Pmj7O0+sf47Ok5azRDWss3sSgXMbjv7Wn1gulhz1yfFWNbw7LpZ3nrX1/wA+idW9AEBAQVXNeZOqBhhPznrOHqeA+t9im6bTc3vW7K/xbivsd8OKfe8z6fz8kJkcXx8H6jj9n71I1fTF+Lk8B66vf7pdFXKXYQEBAQEBAQEBAQEBAQEBAQEBAQEBBGY/gkVZQmOUb8WuHpMPePxHNas2GuWu0pWk1eTTX56fjHq45jWES0lcYpRvxa4ei4d7T+HJcfJjtjttZdNNqseopz0n8PMNBeEgQEGSnndHO17HFr2m4I4gpEzE7w83pW9ZraN4l2HKmY21VI0Ps2W245OtxLf3Lr6fURkjae6m8Q4fbT23r1r8lgUlzRBV81Zj6pphhPzp9Jw9T/y+xTNNp+b3rdnA4txWMMTixT73mfT+fkoRNzcrqQp8zM9ZWTITL4y490Z+Jaoetn6v8Xc+j9d9TM/2z84dBXLXN8JsLngg8xSNcwFpBB5ggj3hB7QEBAQeIpmuvpcHWJBsQbEcQbcD4IPaAgICAgICAgICAgICAgII7HcGiq6Exyjxa4ek094/dzWvLirkrtKTpdVk01+en4x6uOY5g0tJXGOUeLXD0XjvH4jkuLlxWx22suml1WPU056fjHoj14SXxAQWDApC2maQSCHEgjiF6idp3hEz1i0zE9pdIy7jwnZoksJR7nDvHj4Lq6fURkjae6ra7QTgnmr9n5NbNWY+paYoTeU8T+YP8S62m03P71u3zVDi3FYwR7LFPv8An7v5UBxJcSdye/iumpszMzvIssLd0eR/lM7u5rR7yT+Cga6ekQsv0cr72S33RC7rnLWrefKtzcGEEX87UvbAzvs/0z7A0H3oNTJcXyTFKvDyTpYWzQ34mOQAOHk4H3lBqUWO4nUYfNPE2mDInyDS4SapBGTe1nWbtt4lBIVGYZpMGpZ6fqImSt1PlqHDRHb1Q3UC8k3Hkg06LOzhg1dJJ1Ur6ZzQHQk9VL1mzLXJI34oN6krMTZWU/yiOGSKUgO6gPD4bi4Li4kOaOZQQOW3V+nEfkfUBjauZx60PLnu27LdJAaLAbn85BJz50LsDopIhGyWpJbeZ1oY9F+sc43FwCNhccQg2suZifJjMlLM+CVwjEjJKc9hzb6S1wudLgbc+BQWlAQEBAQEBAQEBAQEBAQUPPOMRzD5OxrX6XXc8i9iOTPxPkutpOGVyRz5o6eI/dwddxzJgtOPTW2nzMfJSp6NpHZ2PwTW8Dw5a74uk/o3cJ+l2q094rqJ56frCNe0h1jxVNzYbYrzS3eH1bS6nFqcUZcU7xLytSSsOGMtRN8d/esol53s3GvIcCCQRuCOI8QvePebREd0fUWrXHab9tp3abnXeSTck3ueJV7xxMViJfAdRaLZbWr23l8XppEF9yBBbC3vPrP29jQB9pK5ettvfZcvo9j5dPNvWfktChu8rON5Z+WZgjfUWNLHEQ1gc8PMjiLuNrWFgOaDA3JzafGqWehAZpcWyh75DqjcLHTe+4O9tgggsrxYg7BKhlL1BikmnbqkLw+MlxDiAAQ4cx4oJOoyjLE+idA2GcU8JiMdRcM1E6jKywNnXPdwQfKfJ876PEm1L4muqTG5hi1aWOjuQLEDYGw8RdBIUlLiclZTiofDFFEbv6lz3OmsLAEOaA1p5oNvLGDyU0NWJC09bUSyt0knsvDbXuBY7IIGPJkzcvUTLwuqKZ73aX3dA9r3OJY4lt+BG9uI80Ezl3C52V0ks8dNEC0NZHTsFxvcudJpBN+7ggsSAgICAgICAgICAgICCmZvzOG3ggcAeD3g8O9rT3955LsaDQc31mSPhH7q9xTicxvhwz18z+0fupIkbycPeF3NlZ5Z9HsIxs1a+n1R3HEfELhcZ4fGfH7Ske9H6rf9FON20ef2GSfct+ko2GPVKGjmVSH12bREbrO0WbbkF6iszO0IV8laRNrTtDFNJtYKx8N4dOP6zJ39HzH6TfSWNRvptPPu+Z9WJdtRhAQdXwOj6nCYo+YaL/pHd3xJXDy357zL6LocHsNPTH5iOvx7z+reWtLEHlzwDuQPaUHmGBrGWY1rRcmzQALncmw5lBkQaceLU7qzqmzxGW5GgPYX3HEab3uEG4gICDTxPFIaan11EjY28AXHie4DiT7EEZhucqKormwwzapHX0jRIL2BJ3LQOAKDZocyUs2KPpopdUzNWpulw9E2dYkWNj3FBLICAgICAgICAgIKLn/NhhvTU5+cI7bh6gPqj6xHPlf3dnhmg9p9bk7eI9XH4lruT6qnfzPo5g5xJ3Vk2hXoh8QZI5XN4EhJiJYmInu3IcSI2eL+zitV8cNc4vMGFVbHYq8BrtgSL+V79yomo4d7TU2jFPTd9HwfSaNLw+k543mOnTymHyErqaXh+PB17z6qNxb6RariE8szy09I/d4U9XxAQT+T8JM2Ih7h83GQT3F3Ifj/APVE1WXlrtHeXZ4Lopz5ue32a/PxDoy5S7iD451mkngEHA8flkr8XralgJjj39kYIY232+9YHWej7FvlOWIi43fH82/vuzYE+0WPmsiyIKbQZDbFmr5b15Pzj36NAG7w7bVq5au5BckBAQcizkw1nSTHTPcRGDHGLcgWh7iPE34+AQdBw3KVFT1LJIYA2Rt7Ou4kXBB4nuJQUPJH0m1ftqP2gQdYQCUBAQEBAQEBBoY7iIpsIlmPqN2He47NHvIW7T4py5K0jy1Z8sYsc3nw4RPM587nvN3OJJJ5k7lXalIrEVr2hTb2m1ptPdjXp5EGSGIufYBRdVq8empz3l5taK9ZSlPRtYLnc95/BU3W8YzaieWvSqJfNNp2h8oKoNri48HbH2clo0Oo9nkjeekveWLWx8u/ZOvpmnw9isrnxLC6kPIhGeZ4+TO7vijPNCRwXAX1FRbgwek7uHcPFac2aMcbz3T+H6G+ryctfsx3n0/l0eipGQ0zY4xZo/i57yuPe83neV9wYKYaRjpG0Qzry2iCr9I+LfJsryWNny/NN7+1fUfJod8EEb0aYC0ZSkMrf6VquP7OxY0feP8AeQQXRrUuo811FDKfSuB4vjuQR+k258gg6ug5bg1bKeliVhleWdZMNJc7RYNNhpvbawQTvSzUPZluMxvc0mZoJa4tNtLza45bBBVcFpMUxLDYwycxQRjQHF72l5HEkt7Tz7dvisCfjyTW/wD4BgdXESdd1moOlI06NOm9weO/csii1GBTNzkKQzkzFzR1t3XuWBwN76tgbcVgW3+Tqu/1gffN/iWRGdG8Bjz7LG52pzGzNLt+0WuaCd997IL1n3MvyDCQWWM0hLWX4Cwu55HMC48yEFOwjJlZiFK2pq6t7es7TQbudY8Da4DQeQHJBr4hDX4JWxvbMZadxtYl2g23LXNJOh1uBH/ZBfcZl+W5Jkkp3OaZIusYWkh922fpuOd26T5oIjomxd02CyxyPLnxP4uJLtDxcbnfiHIMXS3jDosOggie5r5H6jpJDtLOVxvu5w9yDe6LsWdUZc0yOLpInlhLiS4tPaaSTx4kf3UEV0t4rI0UtPC9zXvJedDi0n1GDbkS4+5BdcOw8sw+FjnvLmsa0kuNyQ0An4IKn0sV2nD4IQfTcXH2MFh8X/BdvguPfJa/pG35/wDHH4xk2pWnrPycxViV4WR6jYXSADmtOfNXDjm9vDEztG6bghDI7BfPdZrL6nJNrT8EC9ptPV5q32gPjsoj1jjqjV6hITmEV92hjuI4HvHd7V3eH6zm+rv38IefFt70JVddFbmE4a+oqdLdmj0ncgP3+C05ssY67z3T+H6DJrMnLXpEd59P5X2ipGRU4YwWA958T4rj3vN7c0r/AKfT49PjjHjjaIZ14bxAQcf6UcTbPmWOnLrRQ2DjubOfYvNhxs23xQXKmz3hkdOxjJiGtaGgdXJwAsPV8EFCznjVO7NENZRSanDSXdlze0w7ekBe7dvJYHZKCqbNRRys9F7Q4exwusjluCfS9L+sm+65BP8ATB/VqP8AXt+5IgmOj0WybSW/NP33ILEg5LiH0xs/Wx/sgg60g5Pkj6Tav21H7QIPvTM7/KdIOXVv+Lhf7AjLqVK0ClYBwDQB7AAjCqdKzAcoPJ5SRke3Vb7CUHvoucTkyEHk6QeWt370FWyj+Q9JFRTHZkmprf2sfwuPNBnm/L+lYN4xU3Hu+a3P/McB5IPuUfyHpFqqQ7Mlvo7v84z/AIXOHkg1/wCn9LHfHAfK0P8A7D8UHVkHJulKo1ZiazkyNo83EuP4Kz8Gptgm3rKt8XvvmivpCnLrOULIsmT8tS1dQXjsRtv2yNi62zQOfj3LjcZzU9j7LfrKZp9BfUxO3SPVlrqN8NU6ORtnD3EciDzCo1qzWdpcbPgvgvNMkbTCMxA9loSGcLSustz7fdZiduokqfGHtZZwDu48/PvXRxcTyVjaerRbT1md3Sck4zDPh4ZGAyRo7bOZ+uD6wPw9yRnnNO891x4TkwexjHjjaY7x+/3rKsuqICDWxOtbBh8sz/RjaXHyF7IOTZAwFuI4pVT1bS9lySLuF5JDq4tIOwvt4hYF5/k9w3/Rz/vJf8SyIrNGQKRuAzOpYi2ZjdTe3I6+nciznEbi6D30R4t1mBugce1C7b9B93D3HUPcggcE+l6X9ZN91yCf6YP6tR/r2/ckQTPR9/U2k/QP3nILCg5LiH0xs/Wx/sgg60g5Pkj6Tav21H7QIJnpcwV82HRVEYJMOoPA46HW7XkW/FBsZVz/AEr8KjbUyCOZjQ12oHS6wtqa4C29uCCvdIea461kdJR3kBeC4gHtOGzWMB3O5vfwCDoOU8KNJl6CB3pNbd1uGpxLnfFxHkgovSpA6nx+krY/S2HhqiOpt/aHEf3UZb/RFQn5JUVb93yv0gniQ3dx83OP+yjDW6U4HU+L0ddF6TSGnu1MOtt/aC4eSwPfQ9QHqqmqfu57tAJ47dp58yR7lkdIQcUz3LqzZU+Ba33NaFb+G1201P8AfKp8RnfU2/3wgFPQlhyhlh9bV3N2wNPbd3/Vb4/YufrtdXT12j7U9v8AKfotFOe28/Zh2OjpWRUzY42hrGiwAVUve17Ta07zK0UpWlYrWOkNHHsFZVU2l2zx6LuYPj3jwWjJji8Ieu0OPV05bdJjtPo5Pj9BJBUaJBZw9xHIg8woM0ms7Sp1sGTBeceSNp/3siUH1YZLowzUVW+GpbJG4te03BH8bhZidusNmPJbHaLUnaXW8p5mZWU1jZs7R2m9/wBZvh9inY8kXj71s0OurqK9elvMfvCwLYniDXr6OOekdFK0OjcLOab2PPl7EGPCsLhpqbq6eMMZcmwvxPMk78kG4g+EbII3Csv0tLO99PC1jnCziC7cXvbc7boEOX6ZmKmpbC0Tm5L7m93CxNr23QZ8VwqGqphHURh7AQ6xuNxcA7HxKDLRUjIaRkUTQ2Nos1o4AeaDOgjH5fpnYsKowtM4sde97gaQbXte3ggk0EZR4BTRYi+eOFrZn31OF7nUbu2JsLlBJkbIK5XZGoJZi51OA48dBcwHyabINzB8s0lK/VBC1rvzjdz/ACc4kjyQS6DSxXCoaqmEdRGHsBuAb7EcwRvzQZaCijgpGxQsDI28GjgOf2lB4xTDIaml6udgey4NjfiOBuNwg9Ydh8VPSNigYGRi9gPE3PHig2UHCs1PvmWrP9q8e42/BXTRRtp6fCFQ1k757/GW1lPLT62r5thae2//AKW97vsWrW62unr/AHeI/ds0WjtqLf2+ZdkoaNkNK2OJoaxosAP43PiqnkyWyWm1p3mVopStKxWsdIZ14exBF5gwSOroix+zh6LxxafxHeF4vji8bSiavSU1NNrd/E+jkGM4TLS1ZjmbY8j6rh3tKhWrNZ2lU9RpsmC3LeGgvLQICDLS1D4qhskbi17TcEcQUiZid4eqZLUtFqztMOtZSzQysg0us2do7TeTh+c3w8OSm48kW+K2aHX11Fdp6Wjx+8LGtroCAgICAgICAgICAgICAgICAgICAgIOQ0mXZK7NVVa7YmzSa393bPZb3uPwVqvra6bTU825Y2j8FZppLajUX8RvO8/i6th9DHBRtiiaGsaLAD7T3k96rOXLbLab3neZWPHjrjrFaxtENha3sQEBBr11DHNAWTMa9p5EfEdx8QsTWJ6S15MVMleW8bwpmKdHLCSaaUt+q/tN8nDced1Htp48S4+bgtJ647bfdKtVmSq2M/zQeO9jgfgbH4LVOG8eHNycL1NPG/wRE+FzsPbhkb7WOH4LxyzHhFtp8te9Z/KWoeK8tOzJTVDo52vjcWvabgjiCsxbbs9UvalotWdph1nJ+aW1kOh9mztG45OH5zfxHJTcWWL9PK16DX11Fdp6Wj/d1lW10RAQEBAQEBAQEBAQEBAQEBAQEBAQeWRhoOkAXNzYWuTxPtWZmZ7sRER2elhkQEBAQEBAQEHh8TTxAPtAKMTET3YXYfCeMUZ9rG/uWOWPR49lT/zH5PsFDEyTUyJjXcLta0H3gJFYjtDNcdKzvERDYWXsQEBAQEBAQEBAQEBAQEBAQEBAQEBAQEBAQEBAQEBAQEBAQEBAQEBAQEBAQEBAQEBAQEBAQEBAQEBAQEBAQEBAQEBAQEBAQEBAQEBAQEBAQEBAQEBAQEBAQEBAQEBAQEBAQEBAQEBAQEBAQEBAQEBAQEBAQEBAQEBAQEBAQEBAQEBAQEBAQEBAQEBAQEBAQEBAQEBAQEBAQEBAQEBAQEBAQEBAQEBAQEBAQEBAQEBAQEBAQEBAQEBAQEBAQEBAQf/Z;" vertex="1" parent="1">
          <mxGeometry x="1160" y="380" width="170" height="121.43" as="geometry" />
        </mxCell>
        <mxCell id="PcL3c5xfH3Mke5svch04-23" value="" style="shape=image;verticalLabelPosition=bottom;verticalAlign=top;imageAspect=0;aspect=fixed;image=data:image/png,iVBORw0KGgoAAAANSUhEUgAAATgAAACiCAMAAADiKyHJAAAAxlBMVEX///88Oj7iWhw5NzskISc2NDgtKi8lIigeGyEhHiQzMTUoJSo1MjcwLTLgSgDhUgDgTADiVxTgRgB+fX/s7OzNzc739/eGhYfX19ccGB/m5ubz8/PhVAu9vL1EQkawsLFZWFtmZGeioqNubW+KiYuamZv88Oyop6hNS07DwsP429LmdUzjYSh1dHbS0tKWlZfyva3toov1zcHlbD3pjW5dXF/xuanvrJj21Mr76+bohmXrlnrupY7ne1Xph2bkZjMAAAgSDBYL/0/PAAAWd0lEQVR4nO1d12LbyA4VPSTFIqpXqrdIcpPtRHYcx5vN///UDjswAxbZm7iehxsvxQqiHmB4S6UPiO7t4/n5j6uXvo03h9tmrXFy0qjVb176Tt4WHqonIZo/X/pe3hJ+1k9iVO9e+m7eDr43TwCan9ZaFI0ThPqXl76hN4K7Ghbc6PGl7+iNoH4ioPpprEVwJQnupPHS9/Qm8NiQBFe7fumbegtoSnLjkfX+pe/q9eNUtlRuq2cvfVuvH7c1QnAnn6VXLr6NKMGd1F76vl49fsmxwRfcw0vf2GtHlZTbZ3zIw32a4BpfX/rWXjduQFAdIautf7KaWQCF6ugB+7vP+JCFH4ms6jenKBkuEB+6N9ePJ/XG2c/Tv3CrrwtAUNV7ITfJiQ/ff35t1j3G/aRRaz52/9INvxJ0gY41+X+iMiIjPpzePVYDoUV2fv4X7/oVABRcvpgwVULHh/urf+rVmpj+fTBi4ArGBm/DVxxZxf2/3DyMqjWy2JD2fdd4SGRQu/U23GfEh+/Xv5p1ukLjqH4oxv0MBNXv/pYHVPTH8eH07owLjS7PPqLgqvKDI8H5ju/+9ke9Ljk1SXAv+iB/GbDgGoXbcHwYPT405EhAoPGhWjyg4Eoe/AyJqZHq1DA+FoMHCq5aPPtwT5HpuQr3sfI4UCmAnO2aJIWz0fz+go/x93EOgiooNwtaJ8BH4z2BUcKgeJNG0sUQosXog5F3sOD6BX84ywqjjVq9LgSQj9bBBkF19A3+kBofuNCqj3ensOI48XmVj4WfIKjisTgqPjRG9ebXn34QuEO53gcLDCWBxcQ/ifFhVGueP9yEpNsNUsjq7d+/8xcGUCvR2mB8aNSqtW9XSSmKieL6x+KTSqXuFfTwEikU/ug5tR+3SKpfkJ3WPlSpVfpy+9isA7nJwyI8PnhO7exOaiecw4iKo/E7x/3d16ZQt4/kBPa6eX59Q3QSzqD7a9Q+DJl0+vOcYDtqBElOi+Qbzde9c3z3iG8qua0X7e/doaLiY0yo33yrpxLfzYLdPSERef9rIro3/1TT2wUcxU4jdCS+5R/xpvHl6jGjyeKh8aPYiZCZj9732OaX2zMxhEqoNYvZHJoted/U5c1jntR4WXByXSw0PCKtfc8LcG5O6nlSa/66K5pRPODK/v3O2Xw5yxYbl9rZbfE87BYnIu93eu4+U2wjXoJeHWNseIlh/f0ua/1STZfbqF7/dmTqikdea//8mZt+DfiaIrdGrV57OJp57KLph/fcYqD7LUeEUAz0GhqNdzxFSKz7OCqEYvxAlf27bjGcS5ba+HpECMW4/kAtBrnZUntya+AKB9S/1WJot9vYJXSHXQ5xty7fTzrW7XT6wrmos7bdEMmexEqjWvOfp+kKdnB/KzDsf6u/V2iLbZgc5RaW3cxQ/x2jLd21pdp2ubyLt3T+Vf8N/+R/deLtiln2EP9YKgmNzxCj+sndEwqlWzxSffwJnoKhoSjaHG7pmooPR4OS66iKYq3hfjvbYd5+eiLOjaMdgr/csmIO4+1GcEZ4ne/0FAMPED+OVzs08fB0kz8KPct7drilbyuMKxxTHCinLReStgQbpgMuW9VWbTMx1lbFCpV3pytOcsaywgwOpNkpqwKfpHY3uK913MFPg2soXCIm9F5TnU1KXXfC2CzZOLYVjatcsqEzUJi64Mf1Z8nBW6ZPg78WDlCvsc4U6cqnGVNuR6sdegu1v8H7LjU2nyh2B2xaWdoF/2dvsW2yUWHaUoPW5zDmAF8fwFTsUP0uKs4+3rx2Khfype+yRo4a9cYxaofT6eqfz3/7hlLuLzVnA7Ydgv9casAyp7pidnXFvoQbUDz14Dm28E+FAdcnXCDCdfawVq35WLxeRdNJz1gL0t9t1vvVfjGWHg7joHF7XFmVFtjGvdO07a51JTI7fxt3XjPmxFtmDDm8AGNdYYeZDy3WPQ5LYVuOyVjY/66Zw8bVRz8L5sSnmFN6EofZX89MW3ccy7Ic3VaX4u0C8FCpdkpThzu1GG0ePp1y2VI0Fm9bO4oxLLUsqxdtMWAwjXfjgYYFUBQj3jw0g82q9BZPz6lPPECj+1q0mEBfJyHa13noLljZYgqAZpN24mPL2NwPo8lTljq2fxjTtdjpd1U/E9k4sdfj0k3MNgb3gpbuQ1PAu7jkYdrm+JdwPVejDFZuVA3YyCIuC/e3ju5D700HSS2ArtAWy0Mlmy2XcwbtauNwWdv2bJHst3IUNl8uZ0xRwy1ccPquJIIxa78bc+y4g0zCAQ/T28sOB3kTN1/TiLnqD19i3aV8JQL/wIx6VKwrFmHnOLLUfPUZLKj9vUyEaRpDSSw3SFxIlNoDJdqvHAVSQ0nMNkLXiH+fa05yxZUl7wtx+qNJlBGjWhAaxvpAit4UBJU7hptqmYS2hbBb8v48MmqhYVlJ7pDkYvF5rdACWaJmBy2KqslTcZOPgqoOFfIAggqN++uqUPQ3mkEzeTjnkbpYdoGKuCM+hTPcpqhbaK5yJsVtcu4Z1pgbVpKtGqL3cj3t8vebsLjo2vEQYm9cd3eRvBHPJIO/2maim6WS5yE9C860uNsGdHa1kyABnpoVBZQgmfiCpx+KZtBtR8uSG5ecaC4LJ1Ia7tbiogsXmR7mPLUI/roAqd2cvybHLus2ZZKXie4FYdrTWJNQeojE2TWaQVR0Z16gYodiEsBzwUVJkraebqYhVGwvXZNZoRh2NjOiELqztQra73LA9FA4e11Liq552bsiMxPveLD0MH5PdW0Wb96pmg87NbhHCJ1d7TxwUIuBrwvZDhI+Ecptin2dr6vlyk1RBii2rnlGGpqTO9lOopC3mEywUS956hr+OZ5slUQbxzNDNdgq2cDPEhr5frtNnOb0MPdxkPMXCfcP1Xo47tDf6sFtO2Rgo4C+CVlsAmKWY6c+GMs/0XFo//9FYfcqSMH2g0gViEw7DSjCFPmgy0ovIDeu9HKV9EpxqSSRjsi0uVsmD0OMZiN/NKxjFJKbovzOSQteC3oG8DyqzNiXWp73uD+XBqfxlw5yGU3RwTFeo9pylE1Jg18fLpEiGPIOe7vs/dOs1es/rmB1dXUUo7nHCRxTZ5tOvzNdejkQNFQrhyp5NZhCzwMJiBAbVVG9uParEbSwH5Lh8/MjGM3hAMtnG8mnvbTBdnv+ZtrbHssSQ6avxlwhdS8LCJvacLkDJtGzPzWyh5dRHHidjZmYaW4W9XrQgl5GrJx5Yuk9pvc4IP2IVyV9Lc5ooogK+wQcUzW8uvZWzNTDDPpskRRzfQfoU6/fMZvnrYP7eY0/W5XBaF5Ce1TKgoB6vv+z30we4qMMn0igr8ISya+K5a8ZNoSvA2Wp3AKGBrmbNGFvy0xLSWM39M1IFbos1Ea/Fs7hj08yv9JyAWMnbi176BsWK8Rn+bf1nPjRdTvj6XQ67rjPjEJ9ZEOYVNpG7s9nXzJXmAfhIb1i3UKHQMTuVhEzbe/WF1tb9SYfJsv17ugnd6ctxSzbPmtnl81JrxBpm4Id8to2/OkQB0Lfgsk5Cuz30rsPKKYG+c2RuFwxU7cq4QtgmqUPDseUGO5aMfUKen+WbrQKhSN3vNivej5Wq1XANGyQ85mBvZfJL/6YAf1VaogMdgmXqbKt5mC4tmxLolY0XV0N8w/20JkbVJ9DqZiHPNG110zVHcuqWAGMQE9XKI0DLF4PPKvf4v6e6+QyOBKhsrLXqXtSt96jn9p7pUaRM3W25VRiRjMyqctubyC8sZA1XqI0LrmLNYy2fhj8kv/9kXSNmwkPbtDNJBJ7Axu6IDolj0Frz9VMHjCryhuXpWuHcWACz5k0QKYo2Or+S6nnLDDJ8nGtinj5om4utSkWgQ32mSfYDPJoQDZIc5YtVd47bC6gX+Kxlg6qLK3AJfkr0LMiREZU3YhPz7RiQTGrKRZBz3CZ3YOdezx/jbTsDwSDGMaBNhJc1PTpY7nNklPdPNTSv7qXQZD0y4oAbZu+dwxXyVG3AE7qufpWEdaZPzkluTl18XCCBZdCYdPHLcO3XBHuil6OzlHNYoErkuJY+X2hTgF1C841o0+wMwqeQDHluqVHMtbhIOMYkUoB3T+sZMnNw/3tmWy09cyVvmv57Tl5Se94IB2TBvpcR5xAGYjhameS+4XNBfQ8YXo1gdqtTWhf1L3Cq6yjLmMahsQz6Nk9zOkRj63YBG98jNz4GYSUMKVDEjYXULSr+L3BGQzAjGVkmP7XEEYNjlH9JK9BuCJyCltksSB29GMzRlufPLvRoU7ASw4OyvEJWfk+xbuGzQVMKnlvbYnk5hA9CIj724ez8/Oz6/xWfpd6g3Z6JtGXH5s5tqlttxNb1eUnB83lAK5sahXdVJYrXj3N9bKcUquodCUSkWCv4GekBp75tpDT03PkdgxIn6GmdWaGtvhgljlb9AO/4Y6XclJcFkp2RTyBY7Z2sf24C018k4jtmgq/MqsS1FxBHJBIpT2MsuwpxXg6yChFRDMfW0GnLHOFbqa9GohdM8y5XAiSdfSN4K03Ysy2QVMZVVQKM2dBgb/qBUHVRemV2sUFg/E/M9kHqnQyyKx9j4XMjJ4Uo9yJcLoyjItjVTgB4RTaE/x24AA7EoS1FTWog+6vskOtwkGBMYrjMKGc8oAYHnCFnhgjX6GQoILxStGjVuhuRneCdS6Z/0WFAZMzsim+NLqalNg8H0OS5CAuhHhPxUkrqeYCzZf80kMPZs1S6rshrscSkqMDfyA81j6dd6AU4dkgIp0iDiiV/LFfKDdi3UYIrDHJChKssRk1Cr5SolowNhCENW4FINCu59m4JJMzkSpBqZqVUcK7yLckCoNbHFlVMea7jEgzoUZZRJ6+TSvl0oLds0GmtcxBafY4Z7gAoId42EjEbSRPPYslRjaZzBzBoEqNvkmcRXStoxjaozClrBUrBXqdRmZKJIgo3Io8kJrdklFIQhL6AGL0bUjXsWKn/f/FmnpbDpgE7cOI5uS8wjkM1FGTDmpRXn8DjYDEygVvwZYjcj+N5LOf0zjLw4q6KuDSUVWbN8yNMvyQT9zBC2RrrCCDaAQEZSPE6NsudUZSpAr+V1xQxGpS78BMIne0FqXwoW60gOSJVXACoIzAQDp4HfIxi1R+tVJ0+vxJmBNZUOxeEFls5r5A6OTCfESXN2UAetRIcOOcbKSXnsblj60/BzP5wiyasYftiQINWPjcgZSwEuae4AJ4yWjtDqQpKZ2dZxDyxdYmPRVE8RX5VZiD5a0SKuExtUBwU7EjnA3oUiPPAGlKafStJCSaCuZhsvOn54JY8hCVmvCmiIAmAr78YHckiXzDgWE1elEHJm+DwElQB0vOKbpW5Eloy6E1sCrEdJk5ZynhjCuIqnNJBzMBzTJK2aAnIVZuCqRSu4PTumO67cejL03vB7U0TA+KLBaBpwlGv5HK5jscyJGHlQN6eWX5FLjcMCTyT/+jg8xjkZwOXi0KaLPcsxByhupALT8QAC07FBLSKGI9JR4454lUVyC4jh0qOg49IRkKEpL1cUF1I8e/HHURAcvSUEhIo3T5kLVUIe+wFth/do2LQCMGIQ1GyQIad5CqcWRnBaILzGdCIU1ztJ4YOF9iY/2zOQl2FeFzowq/kncKVOQHUkKCIzy7CEJI0O1VCFKJGDjv4mf5szmJoHKB4FDAyl2vjbqfob6gGiqX5oFyjoQEU0nqDNTA+RhzF05Wy/gI0ALAcxG+j2vjvltOYEfvuRLmT8hz5472wEAQUTHbY0ilyBsI1cT/k5NsaCJ+jAeQvUthwqaSk0siIqUcspDI2HPn8KC/iISEaja5ZSUMnIfl9BCrHHOen5OMmU7bPBac/7UuvIliJuATQA8XXwKNdVAFEwIMBKGQkEblkkrxLU6Fzs9z17t0Jl5TnjQ6ZKpBlS8QNpk8Ztci2Vs8xGjkZHLQS4ZCQhpFrKfEA+eJMxCM9Xk5SX8WDNuRmQUKDkFPpCe0j8yM50bdfhZHYDzzp6UTZF3PO0FyJBQSysHlb8oJA+cJjSAS6nnvLAPu3IwXmcgqt8ONEj86iYSNNEuTAHNT4P3iZDS1f9L1F/MAjxhVeIucHByNR4Av0InGmh+ZUtBuGckl5FeHLS2s8eVRmRRiqD1BuglvUpjUVmmGxK0MvH/As0ZC6uWQSikD5yWcjnu/ZY91p6C7whNFliCBLp6rCd+cvHBfp4cthYkZ2NQWEmulTAWIjcG0EjavKIZDrad4KXrg3ENbuH3jKVMkc7GzgAcw+wy/nYEf1dvEWJo1kb86KM6S43crqq2zFc/Q2eqB94OBIKIxIVdIlB70wHmAjWCslnR0PuROkJN84ZOro1CoBlpxSXXAmHGBHrx/YYieEHsTcbhNYeYcKEZ74wd6v8EA7zJK4+QyDoEcOI8gfFvlSTmJLAPNbHWG3irAlik2HcpBujim+24Vdbu49FVyeLneqiLvzsSmnOQpFc22WtNOv9+Zrrbh5+t8BYOpRSgkN6dbhAcNNPyjaKzlJ4zgUFO/FV3l0KWRFTv+wCwpuGCM1a5U+P8QE0/S1A45/Wk53hcJ9Tgk+QoGbzJM4zrH9AalbGcjvPqsfCoFbtEvtIDLZ/Td0kHUc+I8JgVfwWAgCMfEEKlEZBSwbUt8jEqYxym0EEbAMqOJJjxDZBCHwockMKh0o8D3r3wFA0YdCQlRqUQydECkktQxF4Yin5KTyG2FFCSjhU9QOFJu0u0T8K0Q3GLUSoS1hEM8NfIzBHmyEIz1CRPBrWJyALN4KVNAGUhb+UeucoDwSQEYCKJuNCKV5LNnfcVAPoEix48C6Katz0UwE2130+bO0qCVU1PMvHU1focCphZRAxWRSnKhKPYG5SuL2h6n/u3NdDrdlC79+fdpFjlND2BiwM9miDl/HvRtRszqZK+A8xUMkUqBkIZH9QZJ3mstGKsa2nN7ulDH09Le+15Z/3fmeM40z81pKnynKHPV8pZcajlLfLMXbfoKtpZ7g5hUyusN0r0FoQ2V6GXbG1vbr/lRrX12C2+TLTl7hlQGNYfdRebaZlae5baSemKJAS/tvTHIB4QNDlTxEN0i1OZImSIT11PFHI/r9UVW42W/pPVzBsLGGfdulYWIeIF7nO4hdTW9Zk+KDD/2Z1KZEYDpqpcCwdQi9OFwCQP1rdUL1BtM0XlxCV3EbQWCm3Z6481l3iRdeyYtywpuyjH2oiFIPc7OViUG4/mhh6Izo5fzgfR1P80xZoHbGdgx1FlwwIoXKBGohaG4N5jG8orGGhY3geA2JTbpdvJHEMcT6VsKzFEn4tqqEipvI8q438PfNdQc3dwujqlj2puDYTtWRWOMaZajl9XlNDq+AxAmFutWggui0vytAvyb9v76v8sIalCMu79LvuDWS64TBe79smepenjrFUe3vYWAxG5DosfpHb2eW2bZ1wrTmu93TxizvZzuLw7b7WzeWuf9v0fkwW1DpO427LsQ/b7vkH22nh/VHZaGBZv97njdmm+326xbhwFNaAR3+aX7/T/wZdp3AYoc+0QBbORRtU8UAUGOfaIIIDlWYIr1ExEgOUY0gj+RBpCN/OFp0PcFF/TdcodlPpEAkWNv6xutLwvYdyswg/qJCJAcKzD1/IkIiBz7k+s+3xsgYfOZxh0BYKlPHi37iOgClj1/YfMnYri/nRiZX5b7BIa7XoRYr9cfN6j+B11RrZ+PGhjlAAAAAElFTkSuQmCC;" vertex="1" parent="1">
          <mxGeometry x="1160" y="500" width="170" height="88.27" as="geometry" />
        </mxCell>
        <mxCell id="PcL3c5xfH3Mke5svch04-24" style="edgeStyle=orthogonalEdgeStyle;rounded=0;orthogonalLoop=1;jettySize=auto;html=1;exitX=1;exitY=0.75;exitDx=0;exitDy=0;entryX=0;entryY=0.418;entryDx=0;entryDy=0;entryPerimeter=0;" edge="1" parent="1" source="PcL3c5xfH3Mke5svch04-22" target="IGsv6p3J93VmrZlw7XDL-3">
          <mxGeometry relative="1" as="geometry" />
        </mxCell>
        <mxCell id="PcL3c5xfH3Mke5svch04-25" value="" style="shape=partialRectangle;whiteSpace=wrap;html=1;top=0;left=0;fillColor=none;" vertex="1" parent="1">
          <mxGeometry x="-350" y="618" width="2170" height="32" as="geometry" />
        </mxCell>
        <mxCell id="PcL3c5xfH3Mke5svch04-26" value="" style="shape=partialRectangle;whiteSpace=wrap;html=1;bottom=0;right=0;fillColor=none;labelPosition=center;verticalLabelPosition=top;align=center;verticalAlign=bottom;" vertex="1" parent="1">
          <mxGeometry x="-370" y="340" width="2190" height="60" as="geometry" />
        </mxCell>
      </root>
    </mxGraphModel>
  </diagram>
</mxfile>
